<svg xmlns="http://www.w3.org/2000/svg" width="177mm" height="145mm" viewBox="0 0 177 145"><path d="M-302.084 30.365c-.503-.526-1.416-1.199-2.029-1.495s-1.258-.713-1.433-.924c-.175-.21-.485-.383-.69-.383-.418 0-.886-1.045-.886-1.98 0-.342-.123-.663-.273-.713s-.345-1.161-.433-2.47c-.088-1.308-.25-2.497-.358-2.642-.11-.146-.279-.643-.378-1.105-.243-1.14-3.233-4.404-3.88-4.235-.477.125-1.293-.786-1.293-1.443 0-.176-.198-.538-.44-.806-.378-.417-.39-.58-.093-1.136.268-.5.276-.737.038-1.024-.221-.266-.233-.576-.042-1.078.147-.388.25-1.17.227-1.74-.022-.569.098-1.201.267-1.405.196-.236.247-.816.14-1.595-.146-1.065-.075-1.346.543-2.156.39-.512.873-.93 1.072-.93s.758-.2 1.243-.442c.485-.243 1.088-.54 1.341-.662.635-.303 1.988-.276 2.186.045.09.146.584.265 1.098.265.76 0 1.15.223 2.095 1.195.639.657 1.47 1.845 1.845 2.64.377.795.796 1.515.932 1.599.137.084.248.503.248.931s.11.778.244.778.322.358.418.794.284.794.417.794c.134 0 .244.212.244.47 0 .259.238.675.53.924.29.249.532.781.537 1.183.009.775.13.978 1.558 2.601.558.635.95.9 1.018.693.087-.259.199-.265.484-.029s.472.224.805-.052c.238-.198.714-.323 1.058-.278.343.045.625-.05.625-.21s.208-.367.463-.46c.254-.093 1.028-.636 1.72-1.207.69-.571 1.256-.947 1.256-.836 0 .112.298-.076.662-.418.363-.342.661-.764.661-.938 0-.175.54-.815 1.2-1.424.685-.631 1.266-1.432 1.352-1.867.084-.418.437-1.028.785-1.355.347-.326.632-.73.632-.898 0-.37 1.015-1.314 1.653-1.54.255-.09.464-.327.464-.528 0-.414.784-1.186 1.638-1.613.319-.159.681-.689.809-1.182.486-1.88 2.205-3.478 3.85-3.58.538-.035 1.188-.156 1.445-.271s.613-.09.794.056c.18.145 1.071.349 1.98.452.91.104 1.654.28 1.654.39 0 .112.477.203 1.059.203s1.058-.086 1.058-.191.683-.262 1.517-.348c.835-.087 1.56-.287 1.613-.445.068-.204.206-.198.468.02.284.235.468.226.788-.039.337-.28.457-.281.626-.008s.324.27.808-.017c.472-.28.624-.285.719-.024.167.462.605.414.605-.066 0-.287.294-.397 1.058-.397.582 0 1.058-.104 1.058-.23s.504-.297 1.12-.38c.615-.082 1.16-.277 1.212-.432.13-.391 1.04-.353 1.175.05.183.542.991-.293.991-1.025 0-.49-.142-.63-.645-.63-.356 0-.714-.108-.796-.24-.082-.134-.714-.51-1.404-.835-.69-.326-1.572-.926-1.958-1.334s-1-.817-1.364-.908c-.366-.092-.727-.418-.809-.728-.08-.309-.232-.475-.338-.37-.105.105-.556-.16-1.002-.587-1.566-1.502-2.995-2.67-3.268-2.67-.151 0-.564-.343-.917-.763-.87-1.035-2.672-1.374-3.363-.633-.261.281-.563.8-.671 1.152-.249.814-.905 1.567-1.365 1.567-.196 0-.356.214-.356.476 0 .61-.502 1.111-1.111 1.111-.262 0-.478.15-.48.331-.005.43-2.74 1.695-4.076 1.885-.57.08-1.118.278-1.217.438-.243.393-1.54 1.05-2.076 1.052-.238.001-.752.168-1.142.372a7.2 7.2 0 0 1-1.485.54c-1.306.287-2.466 1.818-2.808 3.706-.127.702-1.019 2.05-1.943 2.939-.327.315-.595.678-.595.808 0 .373-1.379.863-2.25.799-.742-.055-1.42-.312-3.917-1.481-.596-.28-1.2-.836-1.48-1.366-.259-.492-.72-1.009-1.025-1.148-.305-.14-.69-.551-.855-.915-.166-.363-.538-.827-.828-1.03-.29-.202-.635-.654-.768-1.003-.19-.502-.434-.635-1.158-.635-.505 0-.99-.119-1.08-.265-.09-.145-.485-.264-.876-.265-.83 0-1.79-1.29-3.319-4.454-.516-1.067-1.071-2.1-1.234-2.297-.23-.277-.056-.596.78-1.432.592-.592 1.076-1.183 1.076-1.312 0-.13.48-.428 1.068-.663 1.935-.774 4.293-.1 5.909 1.688.528.585 1.203 1.063 1.501 1.063.529 0 1.327.65 2.114 1.72.48.654 2.237 1.984 2.62 1.984.155 0 .282-.12.282-.265 0-.149.739-.264 1.688-.264 1.177 0 1.787-.12 2.016-.397.182-.219.468-.397.637-.397.17 0 1.357-1.102 2.64-2.448 3.037-3.186 2.92-3.031 3.48-4.564.462-1.263 1.886-3.606 2.305-3.792.11-.049.199-.238.199-.422s.238-.55.529-.813.53-.639.53-.834c0-.196.094-.356.21-.356.117 0 .212-.388.212-.862s.102-1.1.226-1.39c.123-.29.26-.703.303-.919.043-.215.203-.433.357-.485.153-.05.279-.32.279-.6s.16-.507.354-.507c.196 0 .922-.536 1.616-1.19.693-.655 1.416-1.191 1.607-1.191s.397-.149.457-.33c.078-.234.81-.328 2.47-.32 2.62.01 3.95.412 4.952 1.494.347.375.889.763 1.203.863.313.1.695.414.847.698.2.375.394.452.699.281.439-.245 1.334-.121 1.816.252.154.119 1.166.29 2.25.382 1.083.09 2.009.274 2.057.407s.48.242.959.242c.81 0 .882-.073 1.04-1.059.092-.582.286-1.058.43-1.058s.261-.29.261-.646.216-.803.48-.993c.263-.19.746-.901 1.071-1.58.326-.68.784-1.395 1.017-1.588.234-.194.587-.71.785-1.146.197-.437.467-.972.598-1.19.131-.219.433-.874.67-1.456s.545-1.265.684-1.518c.138-.252.252-.744.252-1.092s.18-.783.401-.966.586-.763.81-1.29c.225-.525.596-1.312.825-1.749.23-.436.475-1.686.546-2.778.071-1.091.22-2.103.332-2.249.11-.145.3-1.395.42-2.778.278-3.187.236-2.917.593-3.787.168-.41.306-.971.306-1.248 0-.537.472-1.73 1.489-3.76.345-.69.628-1.469.628-1.73s.352-.887.783-1.391c.43-.504.787-1.065.793-1.247s.122-.33.258-.33.313-.21.394-.465c.08-.255.873-1.226 1.76-2.158 1.466-1.541 1.597-1.772 1.449-2.56-.09-.475-.308-.913-.485-.972-.208-.07-.319-.683-.313-1.728.007-1.264.13-1.752.562-2.226.304-.334.691-.875.86-1.202.17-.328.445-.596.614-.596s.649-.327 1.067-.727c.696-.667.93-.727 2.774-.717 1.33.007 2.051.12 2.121.331.15.45.843.398 1.025-.077.194-.504.463-.5 1.579.03.608.289 1.009.344 1.23.17.182-.143.905-.335 1.609-.426 1.502-.196 2.822-1.04 2.822-1.806 0-.297.524-1.057 1.165-1.689.834-.822 1.215-1.443 1.34-2.185.14-.826.548-1.4 2.01-2.824 1.01-.983 1.835-1.882 1.835-1.998s.357-.289.793-.385.794-.324.794-.508c0-.389 1.396-.843 3.38-1.1 1.08-.14 1.5-.089 1.852.23.251.226.799.496 1.217.6.941.236 2.914 1.323 3.348 1.845.177.214.543.388.814.388.305 0 .692.394 1.022 1.04.292.573.651 1.116.799 1.207.147.091.268.516.268.944s.107.778.238.778.23.447.219.992c-.011.546.018 2.15.065 3.564.049 1.47-.03 2.717-.182 2.91-.147.187-.35.69-.453 1.117-.29 1.211-1.117 2.182-2.408 2.826-1.128.564-1.472 1.082-.937 1.412.277.171.225 1.184-.088 1.689-.112.183-.403.313-.644.289-.93-.091-1.072.06-1.327 1.407-.466 2.459-.539 3.36-.286 3.516.136.084.247.371.247.638s.167.55.372.628c.204.079.456.538.56 1.02.103.484.322 1.046.488 1.25.419.52.315 8.912-.12 9.726-.255.475-.251.685.015 1.006.227.273.252.514.076.737-.143.182-.332 1.133-.419 2.115-.087.981-.27 1.994-.408 2.251s-.324 1.517-.416 2.801c-.153 2.158-.114 2.439.515 3.702.375.752 1.153 1.963 1.73 2.69.575.728.989 1.478.918 1.667-.072.19.18 1.083.56 1.985s.675 1.933.657 2.29c-.026.507.037.58.286.33.175-.175.535-.318.799-.318.263 0 .686-.107.939-.238.45-.234 1.767-.626 4.957-1.478.873-.233 2.183-.478 2.91-.545s1.68-.221 2.117-.342c.762-.212.987-.16 2.315.531.328.17 1.3.458 2.162.638 1.818.381 2.8.141 2.8-.685 0-.299.178-.612.396-.696s.397-.41.397-.723c0-.314.238-1.015.53-1.558.29-.543.528-1.102.528-1.242 0-.773 2.173-3.14 3.242-3.53.254-.094.463-.293.463-.443s.184-.273.41-.273c.32 0 .397-.274.352-1.264-.092-2.003.77-2.955 2.686-2.965.46-.003 1.123-.462 2.108-1.46.79-.8 1.59-1.454 1.777-1.454s.34-.179.34-.397.178-.397.396-.397.397-.166.397-.368c0-.494 1.352-.628 3.603-.357 3.72.448 6.906.472 7.253.054.177-.213.538-.387.803-.387.264 0 .554-.12.644-.265s.389-.265.664-.265.818-.416 1.206-.926c.692-.906 1.438-1.228 1.438-.62 0 .168-.298.696-.662 1.173s-.661 1.16-.661 1.516-.18.99-.398 1.407c-.574 1.093-.468 4.697.175 5.913.366.693.487 1.499.487 3.24 0 2.278-.016 2.337-.926 3.344-.509.564-.926 1.11-.926 1.215s-.536.802-1.19 1.55c-.655.75-1.191 1.503-1.191 1.675s-.09.353-.2.401c-.343.15-1.917 2.265-1.917 2.574 0 .16-.178.293-.397.293-.218 0-.396.13-.396.288s-.536.9-1.191 1.649c-.655.748-1.19 1.512-1.19 1.696s-.16.335-.357.335c-.195 0-.572.24-.837.533-.407.45-.683.506-1.775.36-.986-.13-1.539-.053-2.334.328-.573.275-1.043.6-1.045.721-.002.122-.248.42-.547.663-.542.439-.54.445.397 1.498.517.581.94 1.159.94 1.283.001.125.358.678.795 1.229.436.551.794 1.12.794 1.264s.238.324.529.4c.357.094.529.36.529.825 0 .396.15.686.354.686.58 0 1.77 2.708 2.167 4.932.488 2.736.506 2.586-.404 3.445-.437.412-.794.943-.794 1.18 0 .238-.182.583-.404.768-.907.752-1.905 2.626-2.189 4.108-.165.866-.375 4.432-.467 7.924-.091 3.493-.294 6.826-.45 7.409-.157.582-.295 2.784-.306 4.894-.02 3.789-.03 3.849-.768 4.813-.487.637-.887.923-1.15.822-.223-.086-.482-.046-.577.088-.425.602-1.697 1.156-2.654 1.156-.6 0-1.093.141-1.157.331-.088.264-.192.264-.514-.002-.417-.344-1.703-.318-2.292.045-.184.115-.735.133-1.224.041-.51-.095-.96-.05-1.057.106-.195.317-9.988.388-10.302.075-.11-.11-.635-.219-1.169-.243-1.26-.059-2.75-.363-3.09-.632-.148-.117-1.312-.297-2.587-.4s-2.381-.29-2.459-.416c-.196-.318-2.688-.286-2.887.037-.09.146-.732.265-1.427.265s-1.35.087-1.457.193c-.256.257-4.92.261-4.921.005 0-.11-.268-.202-.596-.207s-.826-.183-1.109-.397c-.282-.213-.827-.388-1.21-.388-.655 0-1.848-.941-1.848-1.458 0-.128-.3-.546-.667-.93-.646-.673-.654-.727-.261-1.667.223-.535.542-.972.708-.972s.695-.3 1.175-.666 1.235-.738 1.679-.827.806-.265.806-.392c0-.128.327-.233.727-.233.4-.001 1.044-.167 1.43-.369.46-.24.794-.277.963-.108.17.17.321.16.437-.028.237-.383 2.076-.369 2.464.019.232.232.405.224.714-.033.277-.23.408-.243.408-.041 0 .163.275.297.611.297s.842.174 1.125.388c.282.214.7.392.93.397s.69.298 1.022.652c.496.528.721.6 1.254.397.357-.136 1.11-.247 1.675-.247.564 0 1.09-.107 1.171-.237s1.1-.321 2.265-.424 2.118-.279 2.118-.39c0-.112.706-.283 1.57-.381.862-.098 1.607-.294 1.655-.437s.56-.337 1.14-.431 1.213-.33 1.406-.523c.194-.194.584-.352.866-.352s.72-.11.974-.245c.252-.135.672-.312.933-.393.38-.118.42-.25.199-.664-.152-.283-.276-.88-.276-1.326s-.106-.812-.235-.812-.315-.535-.413-1.19-.29-1.19-.427-1.19c-.136 0-.248-.272-.248-.603 0-.332-.169-.844-.375-1.138-.206-.295-.457-.972-.557-1.505s-.348-1.107-.551-1.276c-.203-.168-.378-.5-.389-.737-.061-1.379-1.796-2.695-2.853-2.166-1.84.921-2.99 1.339-3.689 1.339-.448 0-.878.101-.955.226-.077.124-1.119.307-2.316.407s-2.302.283-2.456.406-1.172.312-2.263.418c-1.092.107-2.05.297-2.13.423s-1.651.27-3.491.32c-3.65.1-4.169.288-4.169 1.512 0 .58-.587 1.33-2.772 3.54-1.525 1.54-2.924 2.802-3.109 2.803s-.753.356-1.262.791c-1.079.922-4.017 2.383-4.792 2.383a2.5 2.5 0 0 0-.98.233c-.246.127-2.051.314-4.012.414-1.962.1-3.697.29-3.856.423-.179.148-.41.12-.601-.07-.239-.24-.386-.238-.63.005-.383.385-1.967.423-2.195.053-.1-.16-2.031-.264-4.91-.264-2.611 0-4.747-.1-4.747-.224 0-.372-2.177-2.404-2.937-2.74-.406-.18-.654-.463-.579-.66.098-.255-.214-.345-1.203-.345-.735 0-1.407-.116-1.495-.258-.088-.141-.6-.258-1.14-.259-1.393-.002-4.083-.275-4.553-.463-.218-.087-.754-.182-1.19-.211-2.845-.191-5.33-.484-5.557-.656-.26-.197-1.852-.467-3.994-.678-.965-.094-1.123-.027-1.443.614-.544 1.09-1.347 1.911-1.87 1.911-.256 0-.548.132-.648.294-.118.19-.633.235-1.452.126-1.104-.147-1.32-.095-1.666.398-.218.31-.34.712-.272.89.069.178-.06.477-.284.663-.225.187-.41.48-.41.65 0 .88-2.413 3.329-3.28 3.329-.378 0-.688.112-.688.248 0 .137-.536.33-1.19.427-.655.098-1.191.284-1.191.413 0 .13-.275.235-.611.235s-.842.175-1.125.388c-.282.214-.846.393-1.253.397-.43.005-.986.271-1.323.634-.453.486-.985.668-2.386.816-1.32.14-1.846.31-1.965.632-.09.242-.915 1.324-1.835 2.405s-1.673 2.073-1.673 2.206c0 .358-1.127 1.234-1.6 1.244-.226.005-.53.128-.674.273-.145.144-1.151.335-2.236.424l-1.972.16zm2.315-2.971c.953-.117 1.48-.323 1.654-.647.532-.994-.54-.967-3.109.078-1.311.534-1.703 1.22-.51.894.31-.085 1.195-.231 1.965-.325m5.479-1.977c.436-.585 1.062-1.315 1.389-1.623s.595-.77.595-1.026.106-.53.234-.61c.617-.381.491-1.893-.269-3.238-.891-1.578-2.193-2.468-3.618-2.474-1.282-.005-2.145-.474-2.67-1.451-.679-1.266-1.324-2.098-1.495-1.927-.087.087.036.534.274.994s.394 1.035.347 1.278c-.074.388-.154.373-.647-.12-.31-.31-.675-.762-.811-1.006-.415-.74-2.612-1.144-6.89-1.266-1.683-.048-2.447.024-2.446.23 0 .164.519.723 1.153 1.243s1.31 1.338 1.501 1.818c.192.48.565 1.188.83 1.573.451.657.603.699 2.39.662 1.795-.037 1.916-.078 2.061-.691.118-.5.394-.701 1.182-.865.565-.118 1.19-.348 1.387-.512.505-.419 1.571.627 1.753 1.72.314 1.882.66 3.146.94 3.425.163.163.297.481.298.707 0 .225.184.759.406 1.185.311.597.341.957.131 1.56-.225.644-.191.845.19 1.134.696.528.92.438 1.785-.72m-9.657.303c0-.311-1.048-.902-1.246-.704-.079.079-.072.326.014.55.17.442 1.232.574 1.232.154m4.295-.886c1.45-.67 1.509-1.139.128-1.02-.949.082-.956.075-.73-.71.125-.436.159-.862.075-.945-.316-.316-1.058-.134-1.515.372-.388.429-.414.597-.14.926.183.22.497.402.697.402s.365.119.365.264-.209.267-.463.269c-.714.006-1.219.428-1.047.875.187.487.886.372 2.63-.433m126.975-.546c.092-.128.293-.156.444-.062s.346.058.431-.08.034-.326-.114-.417c-.385-.238-.333-.672.062-.52.918.352 1.554-2.771.844-4.144-.231-.446-1.033-1.396-1.782-2.111-1.242-1.184-1.444-1.284-2.278-1.128-1.371.258-1.919.268-2.921.056-.501-.106-1.037-.115-1.19-.019s-.548.14-.875.097c-.328-.042-.596.004-.596.103 0 .206 2.686 2.768 2.902 2.768.08 0 .308.387.509.86.2.473.529 1.222.73 1.664s.413 1.297.473 1.899.234 1.328.387 1.613c.267.5.324.503 1.541.086.695-.238 1.34-.538 1.433-.665m-1.095-.165c0-.145.126-.264.28-.264s.206.119.116.264-.216.265-.28.265-.116-.12-.116-.265m.404-1.045c-.097-.158-.274-.226-.393-.153-.295.183-.696-.371-.906-1.25-.103-.43-.064-.727.096-.727.148 0 .27-.238.27-.529s.119-.53.264-.53.265.103.265.229c0 .46 1.372-.05 1.569-.583.172-.465.232-.393.394.466.117.625.081 1.125-.093 1.3-.156.155-.283.478-.283.717 0 .59-.948 1.439-1.183 1.06m-.008-3.453c-.09-.145-.037-.264.117-.264s.28.119.28.264-.052.265-.116.265c-.065 0-.19-.12-.28-.265m-13.89 5.01c0-.446-.111-.513-.595-.365-.765.235-.817.29-.607.63.32.517 1.202.322 1.202-.266m2.72-.276c1.035-1.179 1.518-2.345 1.418-3.423-.1-1.083-.855-2.37-1.39-2.37-.202 0-.367-.118-.367-.264 0-.356-1.246-.339-1.468.02-.096.157.082.526.398.82.315.294.685.827.821 1.186.137.359.354.587.483.507.346-.214.53.754.37 1.944-.087.655-.255.994-.454.917-.412-.158-1.312.84-1.086 1.204.271.44.5.343 1.275-.54m2.51.343c.058-.173-.083-.314-.313-.314a.42.42 0 0 0-.42.419c0 .467.57.386.734-.105m4.236-.615c-.027-.932-.293-1.157-.737-.622-.18.216-.484.394-.676.394-.442 0-.73.454-.563.888.081.213.467.295 1.063.225.84-.098.933-.188.913-.885m-30.104.036c.464-.3.37-.323-1.587-.392-.655-.023-1.594-.141-2.086-.262-.716-.176-.87-.145-.773.151.196.595 3.692.99 4.446.503m4.7-.16c1.596-.306 1.16-.621-.712-.515-1.9.108-2.51.285-2.278.659.134.216 1.445.153 2.99-.144m8.808.028c-.02-.393-.613-.32-.75.091-.074.223.047.322.323.265.242-.05.435-.21.427-.356m4.484.132a.265.265 0 0 0-.265-.264.265.265 0 0 0-.264.264c0 .146.119.265.264.265s.265-.12.265-.265m-114.3-.535c.336-.222.296-.342-.265-.784-1.123-.885-1.663-.606-1.049.543.303.565.711.64 1.314.241m105.088-1.185c.064-.801-.012-1.058-.313-1.058-.426 0-.694 1.439-.407 2.186.249.649.627.057.72-1.128m2.068.91c0-.299-.119-.47-.264-.38s-.265.335-.265.544.12.382.265.382.264-.246.264-.545m-15.875-.097c0-.132-1.594-.95-1.826-.936-.327.018 1.107 1.05 1.459 1.05.202 0 .367-.051.367-.114m23.841-1.355c.095-1.336-.553-2.408-1.268-2.097-.264.115-.629.185-.81.156-.796-.128-.233.722.727 1.099.932.366 1.058.518 1.058 1.275 0 1.176.2.882.293-.433m-4.879.476c0-.254-.213-.813-.474-1.242-.39-.64-.503-.7-.642-.34-.098.255.071.775.404 1.242.666.935.712.957.712.34m13.154.25c.072-.118.211-.812.308-1.543.167-1.263.13-1.38-.777-2.366-.524-.57-.953-1.134-.954-1.253-.002-.344-1.404-.084-1.524.282-.06.182.08.33.31.33a.41.41 0 0 1 .42.398c0 .218.118.396.264.396.145 0 .265.15.266.331 0 .182.175.663.387 1.07.212.406.463 1.15.557 1.653.164.877.461 1.157.743.702m-15.712-.86c0-.283-.178-.514-.396-.514-.427 0-.49.242-.237.903.206.538.633.276.633-.39m5.028.139c0-.4-.188-.736-.463-.834-.255-.09-.67-.341-.921-.557-.407-.349-.476-.344-.625.044-.193.503.312 1.223.859 1.223.205 0 .44.178.525.397.241.629.625.461.625-.273m5.291-.24c0-1.298-.366-2.089-1.166-2.517-.918-.491-1.516-.026-1.01.784.178.285.324.673.324.862 0 .49 1.091 1.78 1.505 1.78.22 0 .347-.334.347-.908m7.524-.379c-.406-1.015-.91-1.258-.91-.438 0 .354 1.11 1.764 1.266 1.608.044-.044-.116-.57-.356-1.17m-26.31.616c0-.516-2.886-.842-6.085-.687-1.065.052-1.727.39-1.495.765.25.406 7.58.33 7.58-.078m-96.161-1a21 21 0 0 1 1.02-.798c.294-.21.441-.534.351-.769-.167-.436.111-.489-4.163.783-1.826.544-2.114.787-1.302 1.099.984.378 3.501.184 4.094-.315m11.89-.427c.121-.722.043-1.319-.254-1.947-.516-1.086-1.873-2.448-2.09-2.096-.136.22.425 1.544 1.145 2.703.136.218.318.843.405 1.39.206 1.288.57 1.265.793-.05m2.78-.82c0-.296.196-.838.436-1.204.412-.628.403-.736-.166-1.95-.71-1.516-1.781-2.393-2.922-2.393-.856 0-1.846.401-1.846.749 0 .11.607.663 1.348 1.228 1.253.956 1.868 1.824 1.97 2.785.024.219.061.606.083.86.057.681 1.097.61 1.097-.075m76.025-.246c.122-.118.081-.3-.09-.406s-.443-.06-.605.102-.501.295-.755.295c-.253 0-.544.135-.646.3-.214.346 1.715.077 2.096-.291m6.99.195c-.197-.591-2.349-1.025-4.4-.888-1.87.126-2.394.263-2.105.552.073.074 1.163.172 2.422.218s2.37.165 2.469.263c.327.328 1.73.201 1.614-.145m-79.903-.372c.353-.095.768-.553 1.014-1.12.23-.529.52-1.159.646-1.4.126-.242.159-.878.072-1.413-.129-.792-.46-1.215-1.773-2.264-1.783-1.424-3.129-1.707-4.113-.864-.582.498-.486.879.22.879.51 0 2.41 1.956 2.41 2.482 0 .177.127.45.284.606.156.157.3.954.319 1.773s.1 1.487.179 1.485.413-.076.742-.164m112.776-3.435c0-.219-.12-.324-.265-.234s-.265.342-.265.56.12.324.265.234.265-.342.265-.56m-108.22-1.731c.003-.737-.25-1.291-1.06-2.316-.585-.74-1.2-1.346-1.368-1.346-.167 0-.491-.155-.721-.344-.564-.465-2.807-1.01-3.33-.81-.707.272-.32.92.77 1.294 1.179.405 3.748 2.809 3.977 3.723.085.336.28.943.434 1.348l.28.736.505-.659c.282-.366.509-1.087.512-1.626m55.301 1.231c.239.148 2.613-2.445 2.664-2.909.016-.145.127-.383.248-.529.12-.146.29-.924.377-1.73.243-2.264-.49-5.104-1.633-6.33-.686-.735-.78-.34-.192.797.23.445.45 1.737.513 3.003.095 1.938.044 2.282-.398 2.682-.278.252-.45.549-.382.66.191.308-.546 1.578-1.169 2.014-.305.214-.555.547-.555.739s-.387.503-.86.69c-1.899.754-1.824 1.442.11 1.008.576-.13 1.151-.172 1.277-.095m48.908-.77c.087-.454-.03-.484-1.29-.335-1.535.182-1.717.271-1.446.71.11.178.689.265 1.413.212.95-.069 1.249-.201 1.323-.588m-101.457-1.455c-.103-.23-.242-.895-.309-1.478-.172-1.492-1.379-2.905-3.19-3.735-1.592-.73-3.747-.977-3.932-.452-.104.295.972.912 2.201 1.263.308.088 1.213.782 2.01 1.542 1.05 1.001 1.544 1.71 1.787 2.573.185.655.39 1.37.457 1.588.094.31.233.259.641-.242.316-.388.448-.805.335-1.059m45.884.586c.1-.668-.589-.979-1.019-.46-.246.296-.242.47.02.786.431.52.896.367 1-.326m60.377-.527a.35.35 0 0 0-.352-.346c-.22 0-.353.315-.353.829 0 .755.031.786.353.346.194-.265.352-.638.352-.829m-66.41-.097c0-.566-.034-.585-.64-.353-.499.192-.554.805-.088.972.482.173.728-.036.728-.619m3.08.413a1.3 1.3 0 0 0-.005-.806c-.22-.574-1.223-.015-1.223.683 0 .626.996.726 1.228.123m54.375.11c.294-.157.852-.336 1.24-.397 2.056-.323 2.532-.438 2.985-.721.274-.17.497-.4.497-.511 0-.277-1.39-.252-2.727.048-.61.137-1.429.316-1.819.397-.818.171-1.614.871-1.394 1.227.198.32.564.307 1.218-.043m-60.762-1.059c0-.554-.105-.627-.794-.546-1.291.152-1.457.889-.265 1.172.83.197 1.059.062 1.059-.626m21.782-.063c.842-.868.846-.885.333-1.35-.386-.348-.503-.756-.455-1.576.056-.947.264-1.3 1.44-2.445.755-.736 1.374-1.487 1.374-1.667 0-.573.65-.14.915.61.177.501.158.873-.066 1.231-.176.282-.32.646-.32.809s-.298.65-.662 1.082c-.363.432-.656.985-.65 1.229.015.608 1.763-1.386 2.279-2.6.491-1.155.683-3.37.312-3.6q-.276-.171.054-.375c.208-.129.254-.387.124-.695-.301-.71-.402-1.387-.416-2.805-.007-.69-.125-1.256-.262-1.256-.138 0-.25-.15-.251-.331-.005-1.295-2.598-5.49-3.393-5.49-.121 0-.379-.296-.572-.657-.194-.362-.571-.727-.839-.812s-.487-.251-.487-.37c0-.23-2.03-2.394-2.247-2.394-.072 0-.674-.536-1.339-1.191s-1.329-1.19-1.477-1.19c-.165 0-.2-.322-.09-.82.168-.766.138-.81-.442-.644-3.508.998-6.422 2.328-7.612 3.475-.497.479-1.241 1.01-1.654 1.182-.412.17-.75.474-.75.675 0 .2-.117.365-.26.365-.403 0-1.327.87-1.327 1.249 0 .186-.127.338-.283.338-.44 0-1.092.759-.908 1.056.09.147 1.103.267 2.25.267s2.154.111 2.238.247.513.236.954.224c.44-.013.938.114 1.106.282s.52.305.782.305.704.229.983.507c.28.28.586.43.681.333.096-.095.288.029.427.276.138.248.665.528 1.17.623.506.095.92.285.92.423s.118.177.264.087c.145-.09.264-.037.264.117s.166.28.369.28.442.192.532.427c.1.259.358.376.657.298.354-.092.463-.008.388.3-.061.254.211.648.664.96.933.642 2.947 3.035 2.947 3.5 0 .185.124.336.276.336s.247.149.21.33c-.068.351.514 2.267.826 2.713.101.145.139 1.395.083 2.778a174 174 0 0 0-.104 2.976c0 .255-.113.463-.25.463-.136 0-.248.179-.248.397 0 .652.636.453 1.542-.482m.046-8.318c0-.11.268-.365.595-.566.593-.365.594-.364.091.2-.539.607-.686.685-.686.366m-.926-2.18c.09-.145.216-.264.28-.264s.117.119.117.264-.127.265-.28.265c-.155 0-.207-.12-.117-.265m.975-.661c-.316-.364-.478-.662-.36-.662.119 0 .474.298.79.662.317.363.479.661.36.661-.118 0-.473-.298-.79-.661m-.027-5.764c.06-.04.348-.25.64-.463.489-.359.501-.353.165.075-.2.255-.487.463-.64.463-.151 0-.226-.034-.165-.075m-10.341-1.785c0-.15-.268-.381-.595-.513-.55-.22-.554-.24-.064-.256.293-.01.68.221.862.512.196.314.222.53.064.53a.27.27 0 0 1-.267-.273m6.88-.272c0-.154.118-.207.264-.117.145.09.264.216.264.28s-.119.117-.264.117-.265-.126-.265-.28m2.595.1c.191-.077.42-.068.508.02.087.088-.069.15-.348.14-.308-.014-.37-.076-.16-.16m-8.814-.614c.09-.145.216-.264.28-.264s.117.119.117.264-.126.265-.28.265-.206-.12-.117-.265m-5.137-.753c-.433-.808-.343-1.033.137-.347.233.333.362.667.286.743-.075.076-.266-.102-.423-.396m5.931.224c.09-.145.216-.264.28-.264s.117.119.117.264-.126.265-.28.265-.207-.12-.117-.265m.397-1.053c0-.328 1.2-.642 1.573-.411.153.095.28.299.28.454 0 .185-.128.175-.374-.029-.255-.211-.428-.222-.545-.032-.217.35-.934.364-.934.018m-6.88-1.08c0-.153.12-.206.266-.116.145.09.264.216.264.28s-.119.117-.265.117c-.145 0-.264-.126-.264-.28m5.69-1.306c-.09-.146-.038-.265.116-.265s.28.119.28.265c0 .145-.052.264-.116.264-.065 0-.19-.119-.28-.264m-73.067 22.278-.481-.715-.09.617c-.112.756.822 1.965.965 1.251.049-.241-.129-.76-.394-1.153m57.706.656c.201-.573.172-.796-.127-.986-.213-.134-.448-.246-.521-.249-.208-.006-.73 1.823-.566 1.986.333.334.971-.061 1.214-.751m-31.028.324c.39-.209.62-.209.83 0 .158.16.622.29 1.03.29.548 0 .74-.13.74-.499 0-.274.234-.56.52-.634.358-.094.527-.373.54-.891.164-6.597-.068-10.112-.698-10.591-.263-.2-.348-.508-.236-.861.127-.398.042-.592-.306-.7a6.6 6.6 0 0 1-.948-.4c-.818-.438-2.754-.496-3.28-.098-.268.203-.653.373-.855.378-.67.015-1.88 1.542-1.88 2.371 0 .43-.12.854-.265.944-.424.262-.306.661.198.67.441.007.441.02 0 .277-.612.357-.585.915.076 1.577.412.412.501.742.378 1.4-.13.693-.033.99.497 1.52.888.888 2.29 3.638 2.29 4.493 0 1.072.382 1.282 1.369.754m.322-1.236c-.296-.197-2.225-3.492-2.564-4.381-.188-.495.324-1.237.854-1.237.156 0 .284-.143.284-.318 0-.234.077-.24.297-.02.163.163.46.233.662.156.246-.094.42.13.531.688.091.455.264.889.384.963s.152.311.069.527a.83.83 0 0 0 .097.72c.137.18.398.85.581 1.488.273.954.27 1.202-.02 1.385-.433.275-.79.284-1.175.03m-2.75-7.177c0-.13.187-.308.414-.395.228-.088.334-.29.235-.449-.129-.208-.26-.209-.466-.002-.466.466-.647.334-.512-.373.074-.387.003-.662-.168-.662a.29.29 0 0 1-.296-.287c0-.447.347-.201 1.44 1.02.557.621.83 1.06.607.974-.223-.085-.484-.028-.58.127-.212.343-.673.375-.673.046m1.274-1.532c.191-.077.42-.067.507.02s-.068.15-.347.14c-.308-.013-.37-.076-.16-.16m2.034-.613c.09-.146.216-.265.28-.265s.117.119.117.265c0 .145-.126.264-.28.264s-.207-.119-.117-.264m-1.984-.545c0-.154.119-.207.264-.117s.265.216.265.28-.12.117-.265.117-.264-.126-.264-.28m-1.985-.778c-.09-.146-.037-.265.117-.265s.28.12.28.265-.052.264-.116.264c-.065 0-.19-.119-.28-.264m1.191-.016c0-.154.12-.207.265-.117s.264.216.264.28-.119.117-.264.117-.265-.126-.265-.28m-2.381-.249c0-.145.126-.265.28-.265s.207.12.117.265-.216.265-.28.265-.117-.12-.117-.265m2.778-.794c-.09-.145-.038-.264.117-.264.154 0 .28.119.28.264s-.053.265-.117.265-.19-.12-.28-.265m1.984-.529a.265.265 0 0 1 .53 0 .265.265 0 0 1-.53 0m26.988 13.089c0-.544-.791-.821-1.068-.374-.293.474-.076.779.554.779.285 0 .514-.18.514-.405m-60.617-.283c.958-.478.961-.986.007-1.125-1.01-.146-1.45-1.098-.509-1.098.291 0 .53-.102.53-.228 0-.223-2.452-.152-3.11.09-.181.067-.33.413-.33.77 0 .356-.149.707-.33.78-.183.074.102.144.631.155.543.012 1.236.248 1.588.541.343.287.636.525.65.53.014.004.407-.182.873-.415m56.913-.106q0-.53-.53-.529c-.51 0-.717.518-.352.882.364.364.882.157.882-.353m15.336-1.241c.015-.493-.43-.642-.753-.252-.16.194-.365.758-.454 1.254l-.16.9.678-.793c.374-.437.684-.936.689-1.109m-18.38.84c0-.288.154-.686.34-.884.248-.26.262-.453.053-.705-.236-.284-.413-.28-.995.022-1.066.553-1.474 1.834-.654 2.053.823.22 1.257.052 1.257-.485m-3.836-.506c0-.499.193-1.1.429-1.336.558-.558.42-.638-.616-.358-.69.186-.88.399-1.018 1.133-.2 1.067-.011 1.468.692 1.468.408 0 .513-.185.513-.907m77.463.428c.057-.173-.084-.315-.314-.315a.42.42 0 0 0-.42.42c0 .467.57.385.734-.105m9.585.215a.265.265 0 0 0-.264-.265c-.146 0-.265-.25-.265-.554a.704.704 0 0 0-.529-.692c-.291-.076-.53-.23-.53-.342 0-.307-1.036-.513-1.205-.24-.082.133.089.24.378.24.514 0 1.622 1.248 1.622 1.827 0 .16.178.29.396.29s.397-.119.397-.264m-91.729-1.125c-.078-.4-.234-.728-.346-.728-.357 0-.517 1.15-.211 1.52.418.504.726.067.557-.792m-2.57.197c.35-.534.371-.74.107-1.058-.486-.585-1.13-.509-.932.111.088.279.03.587-.128.685-.205.127-.199.286.022.552.406.49.425.484.932-.29m32.122.25c0-.226-.12-.337-.269-.246-.148.092-.2.277-.116.413.226.367.385.298.385-.167m6.114-1.009c.024-.488.066-.467.315.165.391.99.98.94.98-.083 0-1.272.454-1.911 1.22-1.719.638.16.648.138.548-1.274-.101-1.422-.88-3.352-1.424-3.534-.187-.062-.266.585-.232 1.902.027 1.098-.046 1.996-.163 1.996s-.214.22-.214.488c0 .269-.21.678-.465.91-.442.4-.465.286-.443-2.192.034-3.81-.189-5.152-.96-5.795-.956-.795-1.134-.682-.9.57.116.618.186 1.422.157 1.786s-.094 1.363-.146 2.221c-.058.981-.23 1.637-.463 1.768-.454.254-.462.2-.576-3.793-.05-1.711-.168-3.19-.263-3.285-.096-.096-.174-.395-.174-.665 0-.504-1.187-1.233-1.5-.92-.095.095-.022.633.164 1.195.258.783.27 1.34.048 2.374-.16.743-.22 1.534-.134 1.757.11.286-.01.406-.404.406-.52 0-.549-.102-.404-1.389.24-2.142-.99-6.085-1.753-5.614-.14.087-.326-.029-.413-.256-.196-.51-.896-.549-.896-.05 0 .201.166.503.37.671.202.169.425.75.495 1.29.131 1.01-.308 2.967-.665 2.967-.11 0-.218-.447-.24-.992-.042-1.086-.104-1.645-.226-2.05a7 7 0 0 1-.13-.53c-.125-.653-.66-1.688-.977-1.888-.388-.245-1.828-.372-2.13-.188-.108.066.05.452.35.857.3.406.59 1.263.645 1.905.055.641.111 1.166.124 1.166s.062 1.37.108 3.043c.14 5.013.093 4.716.755 4.81.426.06.619.291.679.812.046.4.241.728.434.728.37 0 .787-1.19.551-1.57-.075-.122.04-.37.257-.55.313-.259.394-.259.394.002 0 .198.21.272.532.188.535-.14 1.224.648.953 1.088-.07.113-.016.378.12.59.215.334.28.333.505-.013.143-.218.205-.575.139-.794-.218-.718.258-1.15.892-.811.438.234.566.226.575-.04.006-.186.247.107.535.653s.6.992.694.992.092-.078-.004-.174c-.262-.262.351-.884.871-.884.86 0 1.385.903 1.175 2.024-.174.928-.152.986.247.655.241-.2.451-.616.467-.926m-7.966-7.318c0-.14.179-.256.397-.256s.397.047.397.104-.179.173-.397.256-.397.037-.397-.104m56.704 8.304c.094-.094.537-.2.985-.235.727-.057 1.547-.709 1.57-1.247.025-.614-4.212.686-4.437 1.36-.104.313 1.582.422 1.882.122m-90.038-.556c.002-.11.076-.467.163-.794.127-.473.05-.595-.372-.595-.292 0-.6-.179-.684-.397s-.275-.397-.425-.397c-.298 0-.382 1.92-.096 2.205.241.242 1.41.223 1.414-.022m29.243-.981c.248-.649.397-1.542.332-1.985-.065-.442-.026-.805.087-.805s.167-.565.122-1.256.035-1.406.179-1.588q.26-.331-.02-.67c-.158-.19-.187-.494-.067-.688.118-.192.12-.724.004-1.182-.382-1.504-1.036-3.416-1.27-3.715-.126-.161-.303-.602-.393-.979-.147-.616-.298-.69-1.492-.732-.787-.028-1.328.067-1.328.233 0 .46 1.05 2.375 1.303 2.375.387 0-.343 1.287-.796 1.406-.313.082-.39-.042-.306-.485.062-.327-.017-.675-.176-.773-.16-.098-.29-.421-.29-.718 0-.296-.246-.884-.547-1.307-.463-.65-.727-.768-1.72-.768-1.284 0-1.444.256-.655 1.046.77.77.86 2.658.126 2.658-.279 0-.365-.156-.263-.478.087-.274-.052-.697-.326-.992-.263-.283-.56-.73-.661-.994-.11-.29-.315-.405-.516-.289-.183.106-.244.094-.136-.025s.063-.376-.099-.571c-.332-.4-2.875-.5-2.875-.113 0 .558.347 1.08.718 1.08.254 0 .338.152.235.421-.089.232.006.798.21 1.257.641 1.442.992 2.647 1.13 3.879.073.655.23 1.226.347 1.27.118.043.153.31.079.594-.075.285-.006.517.152.517s.216.184.13.41c-.197.512.673 1.205 1.284 1.021.347-.104.492.092.64.87l.193 1.006.243-.923c.16-.612.147-1.077-.041-1.379-.157-.25-.214-.64-.127-.865.12-.311.038-.368-.335-.233-.424.153-.41.087.103-.477.327-.36.595-.796.595-.968 0-.539.458-.343.66.281.105.328.17.707.146.843-.12.664.303 1.472.771 1.472.28 0 .688.255.905.565.378.54.395.514.38-.554-.008-.644.148-1.282.369-1.503.335-.335.424-.202.706 1.055.266 1.193.405 1.418.808 1.312.268-.07.587.032.709.227.32.51.38 2.034.087 2.215-.32.198-.326 1.181-.006 1.181.133 0 .445-.53.693-1.18zm-8.18-5.313c-.255-.666-.18-.837.133-.301.154.266.225.539.157.607-.069.068-.199-.07-.29-.306m4.863-.387c0-.145.119-.265.264-.265s.265.12.265.265-.12.265-.265.265a.265.265 0 0 1-.264-.265m1.098-.44c-.197-.214-.303-.443-.237-.51.067-.067.275.063.462.289.441.532.242.727-.225.22m-1.482-.727c.28-.206.603-.316.716-.246.355.219-.073.62-.663.62-.55 0-.552-.01-.053-.374m-4.114-.553c-.19-.229-.216-.397-.06-.397.147 0 .336.179.42.397s.111.397.06.397c-.05 0-.239-.178-.42-.397m3.969-.661c0-.146.119-.265.264-.265s.265.12.265.265-.12.264-.265.264a.265.265 0 0 1-.264-.264m-.926-.53c-.09-.145.029-.264.264-.264s.355.12.265.265-.21.264-.265.264-.174-.119-.264-.264m-.662-2.116a.265.265 0 0 1 .53 0c0 .145-.12.265-.265.265a.265.265 0 0 1-.265-.265m-4.608-1.757c-.14-.363-.1-.38.236-.1.46.38.507.534.167.534-.13 0-.311-.195-.403-.434m19.425 13.15c0-.137-.12-.323-.265-.413s-.264.022-.264.25c0 .226.119.412.264.412s.265-.112.265-.25m-74.877-.677c0-.45-.114-.469-1.356-.215-.862.176-.87.19-.232.37 1.095.312 1.588.263 1.588-.155m2.116.28c0-.064-.119-.19-.264-.28s-.265-.038-.265.116.12.28.265.28.264-.052.264-.116m49.135-1.537c-.063-.328-.115-.06-.115.595s.052.923.115.595a3.8 3.8 0 0 0 0-1.19m72.437 1.132c.216-.35 2.147-1.185 3.948-1.709.98-.285 1.48-.57 1.48-.843 0-.338-.202-.38-1.124-.227a9.7 9.7 0 0 0-2.166.685c-.573.274-1.181.499-1.35.499-.478 0-1.76 1.292-1.577 1.588.208.336.584.339.789.007m6.751-.008a.265.265 0 0 0-.264-.264.265.265 0 0 0-.265.264.265.265 0 0 0 .53 0m3.331-.99c-.289-.29-.487.17-.28.648.197.454.211.453.321-.01.063-.265.045-.553-.041-.639m-138.834-.202c.301-.285.267-.37-.211-.522-.314-.1-.715-.062-.89.083s-.727.305-1.224.353c-.498.048-.947.217-.999.375-.133.406 2.864.146 3.324-.289m42.37.118c0-.137-.119-.249-.265-.249-.145 0-.264.186-.264.413s.119.339.264.249.265-.276.265-.413m10.716-.249a.52.52 0 0 0-.331-.463c-.197-.065-.33.122-.33.463s.133.529.33.463a.52.52 0 0 0 .33-.463m7.011-.053c0-.427-.078-.503-.294-.287-.162.162-.215.424-.117.582q.411.664.411-.295m-56.318-.408c.444-.444-.958-.63-1.868-.247-.454.19-.76.411-.682.49.236.235 2.265.042 2.55-.243m42.478-.331c.165-.436.2-.855.076-.93-.122-.077-.056-.46.147-.852.285-.549.297-.758.05-.91-.242-.15-.245-.272-.013-.504.233-.232.452-.171.908.253.33.309.787.53 1.014.494.323-.051.43.241.494 1.34.12 2.098.662 1.6.978-.897.145-1.153.364-2.25.485-2.439a.61.61 0 0 0-.03-.661c-.137-.176-.327-.617-.42-.98-.285-1.102-2.353-3.176-3.166-3.176-.388 0-.706.096-.706.212 0 .324.643 1.636.802 1.638.332.005.06 3.236-.289 3.452-.514.317-.654.081-.244-.412.26-.314.27-.489.037-.72-.168-.169-.306-.484-.306-.7 0-.566-1.073-2.699-1.423-2.828-.553-.205-1.889.33-1.778.711.059.202.114.575.123.83.01.255.136.463.281.463s.062.203-.186.451c-.425.425-.474.421-.842-.066-.215-.285-.395-.673-.4-.864s-.116-.28-.248-.198-.177-.094-.099-.39c.127-.485.04-.53-.837-.433-1.312.145-1.473.376-1.185 1.698l.482 2.231c.13.609.178 1.264.104 1.456s.009.348.184.348c.71 0 1.855 1.101 1.855 1.782 0 .732.325.63.432-.136.37-2.645.336-2.57 1.163-2.6.433-.015.787.074.787.199 0 .124.164.226.364.226.574 0 1.046 1.462.856 2.649-.198 1.242.123 1.395.55.263m-5.342-3.441c-.09-.145-.038-.265.116-.265.155 0 .28.12.28.265s-.052.265-.116.265-.19-.12-.28-.265m4.365-1.323a.265.265 0 0 1 .53 0 .265.265 0 0 1-.53 0m11.642 3.984c0-.573-.102-1.105-.227-1.183-.125-.077-.198-.65-.161-1.272.036-.623-.005-1.25-.093-1.394-.087-.145-.198-.8-.247-1.456-.059-.782-.359-1.582-.871-2.325-.43-.622-.782-1.233-.782-1.356 0-.575-.682-.765-1.503-.42l-.842.354.51 1.003c.282.55.512 1.314.512 1.696s.082.776.183.876.224.745.275 1.433c.123 1.655.23 1.912.798 1.912.714 0 1.919 1.513 1.919 2.409 0 .421.119.766.265.766.145 0 .264-.469.264-1.043m-3.44-.516c0-.549-.087-1.086-.195-1.193-.212-.213-.233-.343-.293-1.793-.023-.535-.22-1.152-.438-1.37s-.396-.604-.396-.856-.209-1.085-.463-1.851c-.444-1.334-.497-1.386-1.257-1.242-.437.083-.836.185-.887.228-.05.042.154.53.455 1.086.301.555.675 1.664.83 2.465.381 1.952.378 1.89.162 2.75-.152.603-.112.726.198.607.222-.085.461.04.557.29.14.364.207.376.398.068.163-.264.283-.072.417.669.229 1.262.346 1.49.666 1.293.136-.084.247-.602.247-1.15m75.663.17c.005-.109.239-.198.52-.198s.847-.135 1.257-.3a7.5 7.5 0 0 1 1.525-.4c.43-.056.846-.189.926-.296.414-.553 2.153-1.174 2.842-1.015l.744.172-.662-.528c-.66-.526-.91-.536-3.704-.154-2.65.363-5.793 2.725-4.863 3.655.183.183 1.402-.623 1.415-.936m-129.951.254c.282-.228.27-.324-.069-.513-.228-.128-.56-.143-.736-.034-.177.11-.652.173-1.057.142-.79-.06-.93.18-.41.701.354.354 1.68.18 2.272-.296m55.611.386c0-.345-.314-.574-.57-.416-.274.17-.038.636.321.636.137 0 .25-.1.25-.22m5.774-.933c.046-.394-.097-1.278-.318-1.964a19 19 0 0 1-.574-2.307c-.264-1.64-.715-2.511-1.308-2.534-.292-.012-.382-.081-.2-.155.5-.202.396-1.082-.199-1.677-.29-.29-.445-.529-.344-.529s.058-.127-.097-.283c-.323-.322-2.204-.057-2.204.31 0 .129.263.536.584.906.434.499.565.944.51 1.722-.048.651.037 1.05.224 1.05.165 0 .227.119.137.264s-.07.413.046.595c.115.182.228.68.251 1.108.024.427.23.913.459 1.08.317.232.342.378.108.613-.407.406.032.852.935.95.884.098 1.555.781 1.333 1.359-.122.317-.062.416.2.33.204-.067.41-.445.457-.838m-60.013-.022c0-.28-.508-.397-.659-.152-.091.148.02.269.246.269.227 0 .413-.053.413-.117m103.648-1.142c.327-.213.78-.315 1.01-.227.228.087.761-.02 1.184-.239.423-.218.862-.377.975-.353.114.025.385-.023.604-.107s.872-.218 1.453-.3c.58-.082 1.097-.271 1.147-.421s.189-.212.309-.138c.308.19 2.912-.44 2.912-.706 0-.12.342-.219.76-.219.42 0 .913-.181 1.097-.403.183-.221.543-.336.798-.255.559.177 1.46-.624 1.103-.982-.15-.15.067-.597.561-1.155.56-.633.868-.813 1.006-.59.314.509 1.29-.539 1.29-1.386 0-.396.178-.869.396-1.05.448-.372.534-1.058.132-1.058-.145 0-.268-.268-.273-.596-.008-.56-.029-.567-.371-.116-.274.361-.413.398-.568.148-.115-.187-.069-.376.107-.435a.49.49 0 0 0 .312-.438c0-.626.831-2.003 1.21-2.003.207 0 .377.118.377.262 0 .143.262.233.583.198.588-.063 1.316-1.146 1.64-2.436.137-.544.085-.629-.301-.498-.32.109-.28.019.129-.286.327-.245.595-.683.595-.975s.12-.456.265-.366.371-.116.502-.458c.13-.342.429-.782.664-.977.326-.27.356-.44.127-.717-.234-.282-.2-.361.155-.361.457 0 2.047-.992 2.212-1.38.048-.114.248-.208.443-.208.196 0 .59-.298.876-.661s.763-.662 1.059-.662.717-.178.935-.397c.218-.218.724-.397 1.123-.397s.946-.2 1.215-.443c.376-.34.563-.371.802-.132.42.42 1.085.404.837-.02-.107-.182.045-.122.336.132.678.594.884.585.884-.038 0-.275-.344-.869-.764-1.319s-.836-1.104-.924-1.454c-.284-1.135-5.555-5.986-6.503-5.986-.152 0-.275-.111-.275-.247 0-.135-.268-.322-.596-.415-.583-.165-1.791-.682-3.109-1.332-.363-.18-1.048-.409-1.52-.51-.474-.101-.86-.307-.86-.458s-.239-.212-.53-.136c-.29.076-.596.029-.679-.105-.09-.145-.321-.147-.575-.005-.26.145-.737.13-1.225-.04-.561-.196-.827-.196-.892.001-.052.154-.326.22-.61.146-.307-.08-.517-.003-.517.192 0 .258-.086.257-.403-.007-.222-.184-.49-.248-.595-.143-.265.265.772.984 1.189.824.186-.071.338-.014.338.127 0 .14.175.256.388.256s.51.23.661.511c.15.281.504.585.786.674s.669.515.86.944c.19.43.478.781.64.781.17 0 .244.272.175.636-.091.474.019.68.433.811.99.315.675 2.346-.37 2.386-.146.005-.652.22-1.125.477-.473.256-.86.4-.86.318 0-.081-.249-.015-.553.147-.303.163-.869.35-1.256.417-.388.066-1.598.556-2.69 1.088-1.09.533-2.103.975-2.248.982s-.324.087-.397.176-.52.36-.992.602c-.934.479-1.029.682-.543 1.168.221.22.228.317.022.317-.162 0-.34-.137-.397-.305-.07-.209-.322-.16-.803.155-.939.615-1.578.368-2.78-1.075-.748-.899-1.133-1.161-1.58-1.077-.325.06-1.193-.045-1.929-.236-.735-.191-1.519-.278-1.74-.193-.424.163-2.479-.697-2.484-1.039-.002-.109-.182-.198-.4-.198a.4.4 0 0 1-.397-.397c0-.52-.765-.514-.966.008-.098.255-.339.346-.653.247-.348-.111-.498-.03-.498.272 0 .236-.11.362-.244.279-.322-.199-3.024 1.395-4.665 2.751-.714.59-1.441 1.073-1.615 1.073s-.55.298-.837.661-.622.662-.746.663c-.415.003-2.211 1.818-2.211 2.234 0 .226.11.41.244.41s.601.358 1.038.794c.436.437.988.794 1.226.794.239 0 .36.12.269.267-.091.146.05.348.315.449.264.1.701.463.973.805.271.343.558.558.638.478s.362.212.628.648c.265.436.643.793.84.793s.494.297.66.661c.165.364.428.662.584.662.359 0 1.431 1.151 2.138 2.295.579.936.888 1.085 1.143.549.087-.182.112-.078.056.23-.106.586 1.042 2.073 3.706 4.803 1.196 1.225 1.354 1.515 1.301 2.381-.09 1.463.19 1.849 1.226 1.698.48-.07 1.141-.302 1.467-.515m.019-1.039c.19-.076.42-.067.507.021s-.068.15-.347.14c-.308-.014-.371-.076-.16-.16m.177-.893c-.235-.74-.05-.875.34-.25.18.288.212.57.075.654-.132.082-.319-.1-.415-.404m2.254-.513c0-.146.126-.265.28-.265s.207.119.117.265c-.09.145-.216.264-.28.264s-.117-.119-.117-.264M-205.39.575c-.09-.145-.037-.264.117-.264s.28.119.28.264-.053.265-.117.265-.19-.12-.28-.265m5.18-.419c.013-.308.076-.37.16-.16.076.191.067.42-.02.508-.089.087-.151-.069-.14-.348m-1.211-.11c.09-.145.216-.265.28-.265s.117.12.117.265-.127.265-.28.265c-.155 0-.207-.12-.117-.265m8.863-.81c0-.153.12-.206.265-.116s.264.216.264.28-.119.117-.264.117-.265-.126-.265-.28m-9.26-.66c0-.228.12-.338.269-.247.148.091.2.277.116.412-.226.367-.385.299-.385-.166m8.487-.007c.013-.308.076-.371.16-.16.077.191.067.42-.02.507-.089.088-.151-.068-.14-.347m4.213-1.153c0-.137.119-.323.264-.413s.265.022.265.25c0 .226-.12.412-.265.412s-.264-.112-.264-.25m-3.837-.545c.09-.145.216-.265.28-.265s.117.12.117.265-.126.265-.28.265-.207-.12-.117-.265m-1.24-1.768c.191-.077.42-.067.507.02.088.089-.068.151-.347.14-.308-.013-.371-.076-.16-.16m-7.602-.503c.012-.308.075-.37.16-.16.076.191.067.42-.021.507s-.15-.068-.14-.347m1.566-.227c0-.397.475-.82.686-.609.184.185-.181.99-.45.99-.13 0-.236-.171-.236-.38m-10.318-.545c0-.218.115-.397.256-.397.14 0 .188.18.104.397-.084.219-.2.397-.256.397-.058 0-.104-.178-.104-.397m14.436-.848c-.143-.377-.113-.408.148-.148.181.18.263.393.181.474-.081.082-.23-.065-.329-.326m-13.643-.226c0-.226.121-.337.27-.246.147.092.2.277.116.413-.227.367-.386.298-.386-.167m3.969.148c.518-.335.868-.335.662 0-.09.146-.365.263-.611.26-.386-.003-.393-.039-.05-.26m4.383-.077c.1-.261.247-.408.328-.327.082.082 0 .295-.18.475-.262.26-.292.229-.148-.148m3.82.238c0-.057.184-.175.41-.262.235-.09.341-.046.249.104-.156.252-.66.372-.66.158m5.337-1.543c-.465-.466-.375-.852.106-.453.346.287.458.281.658-.034.132-.209.242-.245.244-.081.007.537-.661.914-1.008.568m-22.271-.999c0-.145.126-.265.28-.265s.207.12.117.265-.216.265-.28.265-.117-.12-.117-.265m26.59-.265c.09-.145.283-.264.429-.264.145 0 .19.119.1.264s-.282.265-.428.265c-.145 0-.19-.119-.1-.265m-25.796-.264c0-.146.126-.265.28-.265s.206.12.116.265-.216.264-.28.264-.116-.119-.116-.264m21.078-.176a.73.73 0 0 1-.176-.45c0-.166.123-.15.313.04.172.172.251.374.176.45-.075.074-.216.057-.313-.04m-10.76-.618c0-.145.126-.264.28-.264s.207.119.117.264-.216.265-.28.265-.117-.12-.117-.265m1.538-.18c.191-.077.42-.068.507.02s-.068.15-.347.14c-.308-.013-.37-.076-.16-.16m14.094-.239c.012-.308.075-.37.16-.16.076.191.066.42-.021.507s-.15-.068-.14-.347m1.037.155c0-.146.126-.265.28-.265s.207.119.117.265c-.09.145-.216.264-.28.264s-.117-.119-.117-.264m-28.31-.265c0-.146.119-.265.264-.265s.265.12.265.265-.12.265-.265.265a.265.265 0 0 1-.264-.265m21.96.028c0-.13.195-.311.434-.403.363-.139.38-.1.1.237-.38.459-.534.507-.534.166m-20.854-.35c-.172-.172-.313-.417-.313-.544 0-.126.193-.037.429.198.235.236.376.48.313.544-.064.063-.256-.026-.429-.198m26.807-.207c-.09-.146-.037-.265.117-.265s.28.12.28.265-.052.264-.117.264c-.064 0-.19-.119-.28-.264m-23.019-.265c-.09-.145-.037-.264.117-.264s.28.119.28.264-.052.265-.116.265c-.065 0-.19-.12-.28-.265m20.007-.595q-.03-.727.366-.728c.219 0 .407-.208.418-.463.016-.34.06-.364.169-.089.081.206-.034.506-.255.668s-.462.53-.535.817c-.1.395-.14.345-.163-.205m-29.456-.21c-.285-.314-.352-.56-.18-.667.33-.204.384-.15.619.612.216.706.161.712-.439.054m12.757.011a.265.265 0 0 1 .529 0c0 .145-.12.265-.265.265a.265.265 0 0 1-.264-.265m2.65-.39c-.208-.251-.228-.403-.052-.403.32 0 .692.502.509.685-.067.067-.272-.06-.456-.282m-10.414-.473c-.422-.308-.424-.373-.029-.86.395-.486.416-.488.27-.029-.088.273-.024.66.142.86.377.454.214.466-.383.03m8.293.054c0-.154.119-.206.264-.117.146.09.265.216.265.28s-.119.117-.265.117c-.145 0-.264-.126-.264-.28m4.63-1.572c.263-.29.539-.529.611-.529.073 0-.083.238-.346.53-.264.29-.539.528-.612.528s.084-.238.347-.529m8.334.048c0-.32.502-.692.686-.509.067.067-.06.272-.282.456-.252.209-.404.229-.404.053m5.292-.048a.265.265 0 0 1 .53 0 .265.265 0 0 1-.53 0m-20.333-.251c.058-.175.192-.309.298-.298.316.033.255.396-.086.51-.175.058-.27-.037-.212-.212m1.548-.294c0-.154.119-.206.264-.116s.265.216.265.28-.12.117-.265.117-.264-.126-.264-.28m9.657.016c.09-.145.216-.265.28-.265s.117.12.117.265-.126.265-.28.265-.207-.12-.117-.265m-18.653-.53c-.239-.153-.271-.257-.082-.26a.62.62 0 0 1 .479.26c.203.33.111.33-.397 0m25.532 0c-.09-.145-.037-.264.117-.264s.28.12.28.265-.052.264-.117.264c-.064 0-.19-.119-.28-.264m-7.276-.28c0-.153.12-.206.265-.116s.264.216.264.28-.119.117-.264.117-.265-.126-.265-.28m8.202.016c0-.145.126-.264.28-.264s.207.119.117.264-.216.265-.28.265-.117-.12-.117-.265m-28.84-.264c0-.146.127-.265.28-.265.155 0 .207.12.117.265s-.216.264-.28.264-.116-.119-.116-.264m11.113 0c0-.146.126-.265.28-.265s.207.12.117.265-.216.264-.28.264-.117-.119-.117-.264m-4.018-.181c.19-.076.419-.067.507.02.088.089-.068.151-.347.14-.309-.013-.371-.076-.16-.16m5.738-.348c.09-.146.216-.265.28-.265s.117.119.117.265c0 .145-.126.264-.28.264s-.207-.119-.117-.264m-9.393-.265a.265.265 0 0 1 .53 0c0 .145-.12.265-.265.265a.265.265 0 0 1-.265-.265m22.754-.28c0-.154.12-.207.265-.117s.265.216.265.28-.12.117-.265.117-.265-.126-.265-.28m6.35-.265c0-.154.12-.206.265-.116s.265.216.265.28-.12.116-.265.116-.265-.126-.265-.28m-10.583-.794c0-.154.12-.206.265-.116s.264.216.264.28-.119.117-.264.117-.265-.126-.265-.28m18.542-.138c.012-.309.075-.371.16-.16.076.19.067.42-.021.507s-.15-.068-.14-.347m-36.534-.11c0-.146.126-.265.28-.265s.207.119.117.264-.216.265-.28.265-.117-.119-.117-.265m31.221-.243c0-.134-.078-.462-.173-.728-.156-.44-.122-.435.363.044.526.52.552.926.06.926a.247.247 0 0 1-.25-.242m-7.276-.658c0-.35.09-.581.199-.514.109.068.198.354.198.636s-.09.514-.198.514c-.11 0-.199-.286-.199-.636m5.953.107c-.339-.22-.33-.257.066-.26.255-.003.463.114.463.26 0 .322-.03.322-.529 0m4.254-.42c.013-.307.076-.37.16-.16.077.192.067.42-.02.508s-.151-.068-.14-.347m-8.366-.656c-.096-.155-.117-.34-.048-.409.07-.069.197.058.283.283.179.466.026.548-.235.126m3.054.026c0-.141.179-.188.397-.104.218.083.397.199.397.256s-.179.104-.397.104-.397-.115-.397-.256m5.82-.225c0-.32.503-.693.686-.51.067.067-.06.272-.282.456-.251.21-.403.23-.403.054m-5.122-.71c-.084-.218-.037-.397.104-.397s.256.18.256.397c0 .219-.047.397-.104.397s-.172-.178-.256-.397m6.975.117c0-.154.119-.207.264-.117s.265.216.265.28-.119.117-.265.117c-.145 0-.264-.126-.264-.28m-6.086-.514c0-.145.127-.264.28-.264.155 0 .207.119.117.264s-.216.265-.28.265-.117-.119-.117-.265m-1.058-.454c0-.163-.076-.514-.17-.78-.162-.462-.146-.463.32-.024.382.36.419.53.17.78-.222.222-.32.229-.32.024m7.822-1.055c-.143-.378-.113-.408.148-.149.181.18.263.393.181.475-.081.081-.23-.066-.329-.326M-184.32-24c-.2-.127-.318-.364-.264-.528.056-.167.246-.064.432.234.37.593.353.624-.168.294m.363-2.408c-.09-.146-.037-.265.117-.265s.28.12.28.265-.052.264-.117.264c-.064 0-.19-.119-.28-.264m1.19-.265c0-.145.127-.264.281-.264s.207.119.117.264-.216.265-.28.265-.117-.12-.117-.265m-27.383 30.162c.09-.146.454-.193.81-.104.88.22.81-.106-.282-1.332-.509-.573-.925-1.183-.925-1.357 0-.37-.745-1.048-.939-.854-.189.189.738 3.912.974 3.912.109 0 .272-.12.362-.265m29.993-.668a51 51 0 0 1 3.278-1.57c.545-.238.992-.555.992-.705 0-.166.312-.205.794-.1.624.138.793.085.793-.25 0-.433.941-.93 1.612-.851.205.024.373-.075.373-.221 0-.37-2.804-.332-3.404.046-.271.171-.643.254-.826.183-.183-.07-.78.177-1.33.55-.548.372-1.099.676-1.224.676s-.228.125-.228.278-.416.707-.926 1.231c-.509.525-.926 1.035-.926 1.134 0 .377.4.563.471.218.041-.198.289-.477.55-.619m.428-3.981c.295-.318 1.31-.79 2.255-1.048.946-.259 1.853-.573 2.016-.698.164-.126.491-.154.728-.063.329.126.43.004.43-.515 0-.421.213-.794.558-.98.307-.163.456-.395.33-.515-.306-.295-1.74-.42-2.12-.186a.86.86 0 0 1-.662.057c-.195-.072-1.128.255-2.074.727-1.439.719-1.816 1.054-2.305 2.05-1.005 2.049-.552 2.678.844 1.171m-111.221-.51c.548-.289.682-1.194.177-1.194-.36 0-2.326 1.84-2.326 2.177 0 .12.372.006.826-.252a60 60 0 0 1 1.323-.731m101.567.393a.265.265 0 0 0-.264-.264.265.265 0 0 0-.265.264.265.265 0 0 0 .53 0m19.844-.381c0-.064-.12-.19-.265-.28s-.264-.038-.264.116.119.28.264.28.265-.052.265-.116m-122.273-1.896c.159-.348.194-.633.078-.633-.444 0-2.218 1.807-2.047 2.085.24.387 1.582-.603 1.969-1.452m-3.909.822c-.002-.146-.246-.303-.543-.35-.532-.083-.716.218-.354.58.257.257.901.092.897-.23m2.354-1.941c-.458-.153-1.156.637-.912 1.032.151.246.34.167.716-.297.347-.429.41-.664.196-.735m4.918.552c.115-.4.23-.906.254-1.125s.128-.66.23-.98c.791-2.49-1.94-4.493-4.743-3.48-.743.27-.952.225-1.866-.396-.566-.385-1.126-.7-1.244-.7-.461 0 1.3 1.86 1.988 2.1.402.14.73.37.73.51s.718 1.004 1.596 1.918c.877.914 1.664 1.935 1.748 2.27.216.86 1.047.786 1.307-.117m119.175.346c0-.21-.12-.455-.265-.545s-.265.082-.265.382.12.544.265.544.265-.171.265-.38m-126.242-.69c.978-.51 1.913-1.901 1.533-2.281-.247-.247-3.085 1.994-3.085 2.435 0 .521.318.49 1.552-.154m-1.254-2.352 1.246-1.306-.64-.42c-.352-.23-.64-.595-.64-.81 0-.768-1.415-.431-2.72.647-.69.57-1.403 1.106-1.583 1.19-.25.118-.252.189-.011.303.174.082.756.499 1.293.926.538.427 1.165.777 1.393.777.229 0 .977-.588 1.662-1.307m57.646.371c0-.588-.065-.636-.53-.387-.29.156-.529.457-.529.67s.238.388.53.388c.39 0 .529-.176.529-.67m-7.673.01c0-.219-.112-.397-.25-.397-.333 0-.572.413-.36.624.297.298.61.182.61-.227m60.06-.016c0-.227-.121-.338-.269-.246-.148.091-.2.277-.117.412.227.367.386.299.386-.166m-60.732-1.31c1.725-1.249 2.19-2.013.62-1.023-.599.378-1.26.713-1.466.743-.207.03-.485.226-.616.434-.132.208-.241.274-.244.147-.007-.38-.797.398-.797.784 0 .506.76.176 2.503-1.086m71.975.868c1.598-.013 2.222-.356 2.242-1.232.013-.557-3.302-.158-4.24.51-.4.285-.858.518-1.018.518a.294.294 0 0 0-.29.295c0 .194.294.231.86.109.473-.103 1.574-.192 2.446-.2m8.12-.005c.568-.453 1.275-2.7 1.275-4.052 0-.612-.185-1.454-.411-1.871-.398-.733-.406-.7-.244.962.211 2.163-.091 3.033-1.082 3.116-.548.045-.926-.16-1.474-.8-.405-.474-.742-1.077-.747-1.341-.006-.265-.138-.718-.293-1.008-.237-.442-.206-.514.192-.446.261.045.482-.037.49-.183.008-.145.165-.534.348-.863.235-.423.26-.861.087-1.49-.22-.8-.195-.875.253-.758.8.209.578-.374-.437-1.147-.811-.62-1.276-.738-3.505-.895-2.003-.14-2.665-.1-3.002.184-.237.2-.876.487-1.418.637-.543.15-1.395.68-1.893 1.178s-1.02.905-1.16.905c-.141 0-.257.15-.257.331s-.463.78-1.03 1.33c-.577.56-1.032 1.257-1.036 1.587-.004.324-.14 1.125-.301 1.78-.162.654-.32 1.547-.353 1.984-.078 1.066.608 1.058 1.126-.013.464-.96 2.276-2.183 4.108-2.77.934-.3 1.312-.556 1.286-.871-.02-.246.07-.447.199-.447s.235.178.235.397.235.397.529.397c.291 0 .53-.09.53-.199 0-.257 1.31-.215 1.944.062.316.137.564.093.7-.126.16-.259.357-.2.833.253.343.326.98.87 1.417 1.208.436.339 1.146 1.22 1.577 1.958.854 1.463.905 1.497 1.515 1.01m-13.521-4.586c.012-.309.075-.371.16-.16.076.19.067.419-.021.507s-.15-.068-.14-.347m1.83-.64a.265.265 0 0 1 .53 0 .265.265 0 0 1-.264.265.265.265 0 0 1-.265-.265M-180-13.2c-.096-.155-.118-.339-.048-.408.07-.07.196.058.282.282.18.466.027.548-.234.126m8.61-1.04c0-.146.119-.265.264-.265s.265.119.265.265a.265.265 0 0 1-.53 0m-2.247-2.114c-.093-.15.013-.194.249-.104.458.176.542.365.161.365-.137 0-.321-.117-.41-.261m1.718-.003c0-.146.126-.265.28-.265s.207.12.117.265-.216.264-.28.264-.117-.119-.117-.264m-67.837 8.93c.341-.328.83-.784 1.09-1.015.603-.54 1.223-1.455 1.152-1.703-.03-.107.22-.337.557-.512.336-.176.584-.453.55-.617-.035-.163.302-.689.747-1.169.445-.479 1.096-1.429 1.446-2.11s.758-1.312.906-1.404c.43-.266.32-1.647-.146-1.826-.714-.274-1.436.315-1.436 1.17 0 .487-.126.76-.33.719-.186-.037-.297.138-.254.397.043.254-.025.463-.15.463-.421 0-3.016 3.469-2.873 3.84.088.23.008.315-.216.23a.49.49 0 0 0-.563.196c-.113.183-.078.375.078.427.454.152.054 1.199-.761 1.99-.414.401-.752.907-.752 1.124 0 .544.231.496.955-.2m-11.538-.166c0-.127.36-.303.8-.391s.871-.346.958-.574c.275-.717-.147-.77-.851-.109l-.678.637-.491-.65c-.483-.641-.5-.644-1.041-.155-.687.622-.7.945-.036.945.283 0 .587.119.677.264.202.326.662.35.662.033m65.352-.033a.265.265 0 0 0-.265-.264.265.265 0 0 0-.264.264c0 .146.119.265.264.265s.265-.12.265-.265m-116.152-.264c0-.146-.112-.265-.25-.265-.136 0-.322.12-.412.265s.022.264.25.264c.226 0 .412-.119.412-.264m17.727-.489c0-.123-.246-.445-.546-.717-.321-.29-.492-.696-.416-.986.127-.487-.646-1.513-1.14-1.513-.138 0-.579.283-.98.628l-.73.629.78.827c.43.455 1.05.827 1.377.827.328 0 .596.119.596.264s.239.265.53.265c.29 0 .529-.1.529-.224m44.222-2.244c.417-.411.757-.84.757-.95 0-.113.238-.42.53-.683.29-.263.528-.699.528-.967 0-.269.122-.488.271-.488s.385-.298.523-.662.374-.661.523-.661.27-.14.27-.31.163-.498.362-.728.434-.98.523-1.668c.138-1.06.085-1.292-.344-1.521-.792-.425-.95-.341-1.49.784-.278.58-.595 1.057-.704 1.059-.109.001-.198.24-.198.531s-.463 1.006-1.028 1.588c-1.203 1.24-1.621 1.384-.842.29.3-.423.547-1.01.547-1.307s.119-.613.264-.703.265-.49.265-.888c0-.4.131-.857.291-1.017.349-.348.05-2.01-.32-1.781a.48.48 0 0 0-.193.465c.168.918-1.096 3.883-1.656 3.883-.31 0-.31-1.406-.001-1.733.13-.138.317-.855.415-1.593.135-1.021.085-1.418-.21-1.664-.654-.542-1.512-.588-1.677-.09-.082.247-.374.926-.648 1.508-.29.614-.387 1.095-.234 1.147a.43.43 0 0 1 .264.383c0 .205-.097.199-.317-.022-.435-.435-.83-.4-.654.058a.406.406 0 0 1-.236.52c-.21.08-.38.31-.38.511 0 .2-.397.773-.881 1.272-1.745 1.796-2.035 2.613-.927 2.613.893 0 .366 1.563-.933 2.767-.744.69-.86.937-.437.937.35 0 1.326-.848 1.326-1.152 0-.133.305-.525.677-.87.59-.547.728-.579 1.059-.248.494.494.483.589-.167 1.502-.3.423-.45.768-.33.768.372 0 1.671-1.517 1.671-1.952 0-.258.149-.355.397-.26.251.097.397-.004.397-.273 0-.234.178-.425.397-.425a.4.4 0 0 0 .397-.397c0-.218.168-.397.374-.397.207 0 .428-.149.493-.33s.223-.233.35-.113c.13.122.03.332-.227.476-.254.142-.461.402-.461.578s-.238.47-.53.65c-.585.366-.717 1.118-.198 1.125.182.002.492.106.69.23.297.19.285.34-.068.878-.234.357-.345.73-.247.827.18.18.61-.145 1.977-1.497m-3.87-2.818c-.29-.47.65-1.842 1.271-1.854.275-.005-.075 1.157-.383 1.275-.126.049-.23.257-.23.463 0 .429-.419.502-.658.116m1.717-2.403c0-.154.119-.206.264-.116s.265.216.265.28-.12.117-.265.117-.264-.126-.264-.28m-.927-.249c.09-.145.217-.264.28-.264.065 0 .117.119.117.264s-.126.265-.28.265-.206-.119-.117-.265m-58.605 4.761c0-.15-.476-.03-1.058.267-1.095.558-1.18.7-.882 1.474.15.392.305.318 1.058-.504.485-.53.882-1.086.882-1.237m.741 1.801c.175-.174.318-.413.318-.529 0-.39-.399-.217-.733.317-.362.58-.09.718.415.212m46.726-.61c.457-.345.463-.397.063-.55-.444-.17-1.228.286-1.228.716 0 .35.597.264 1.165-.166m-27.095-.526c.265-.319.244-.524-.106-1.059-.489-.746-1-.844-1.466-.282-.475.572.171 1.601 1.078 1.715.091.012.314-.157.494-.374m28.312.13c0-.145-.053-.264-.117-.264s-.19.12-.28.265-.038.264.116.264c.155 0 .28-.119.28-.264m-50.271-1.329c0-.421-.492-.295-1.059.271q-1.118 1.116.265.397c.437-.225.794-.526.794-.668m6.803.082c-.242-.242-.509-.373-.592-.29s.047.35.29.593c.242.242.509.373.592.29s-.047-.35-.29-.593m40.307.28c.41-.083.815-.332.901-.555.217-.565-.033-.732-.507-.34-.291.243-.603.26-1.168.062-.871-.304-1.357-.009-1.357.824 0 .412.127.473.692.331a40 40 0 0 1 1.439-.323m-20.127-.421c-.006-.505-.306-.835-1.319-1.454-.509-.312-1.076-.812-1.259-1.111-.376-.615-1.07-.72-1.273-.193-.258.671.39 1.728 1.332 2.176.52.246 1.009.552 1.088.68.221.358 1.436.275 1.431-.098m-27.951-.993c.389-.436.645-.793.57-.793-.274 0-1.977 1.195-1.98 1.389-.008.462.754.14 1.41-.596m4.692.457c-.033-.316-.396-.255-.51.086-.058.175.037.27.212.212s.309-.193.298-.298m49.325.073c.09-.146.037-.265-.117-.265s-.28.12-.28.265.052.264.117.264c.064 0 .19-.119.28-.264m-51.05-.64c.283-.207.435-.454.338-.55-.223-.224-1.279.33-1.279.67 0 .36.344.317.941-.12m18.464-.206c.182-.697-.232-1.271-.916-1.271-.619 0-.65.716-.06 1.368.573.632.79.61.976-.097m23.06.052c.09-.146.462-.265.826-.265.398 0 .592-.111.488-.28-.095-.154-.443-.245-.773-.202-.33.044-.778-.07-.998-.252-.322-.268-.462-.253-.737.078-.282.34-.254.473.163.788.603.456.815.484 1.032.133m-13.167-.713c.104-.314-1.218-.733-1.481-.469-.213.213.783.953 1.128.838a.65.65 0 0 0 .353-.369m19.915.03c0-.231-.142-.372-.315-.315-.49.164-.572.733-.104.733a.42.42 0 0 0 .419-.419m4.56-.58c.251-.543 1.108-1.713 1.904-2.6 1.146-1.28 1.38-1.686 1.129-1.958-.248-.267-.245-.301.013-.155.523.295.941-.09.576-.53-.24-.29-.23-.374.053-.375.433-.003 1.025-1.18 1.025-2.035 0-.335-.119-.61-.265-.61-.516 0-.67-.063-1.409-.59-.867-.617-1.59-.287-.981.447.25.3.256.408.025.408-.172 0-.292.209-.266.464.025.254.018.552-.017.661a8 8 0 0 0-.114.397c-.147.579-1.07 2.183-1.255 2.183-.119 0-.216.218-.216.484 0 .267-.268.629-.595.805-.665.357-1.786 1.939-1.786 2.519 0 .245.183.327.53.237.395-.103.528-.008.528.378 0 .513.213.875.507.862.085-.004.361-.45.613-.993zm16.962.009c1.516-.836 1.555-.889 1.065-1.43-.67-.74-.97-.606-1.575.7-.304.655-.5 1.19-.438 1.19.063 0 .49-.207.948-.46m-48.878-.71c.16-.418-.318-1.476-.669-1.476-.297 0-.552 1.012-.372 1.481a.555.555 0 0 0 1.04-.005m20.217-1.247c.978-.922 1.33-1.409 1.08-1.494-.202-.07-.56.112-.793.404s-.742.731-1.13.977c-.588.371-.795.39-1.245.109-.625-.39-.725-.33-.953.58-.154.612-.09.678.711.732.736.05 1.119-.165 2.33-1.308m8.648.387c.217-.565 1.056-1.41 1.401-1.41.146 0 .265-.208.265-.462 0-.255.298-.81.661-1.232.364-.423.676-.87.695-.992l.066-.441c.018-.12.236-.42.485-.67.475-.474.434-.802-.28-2.25-.447-.907-1.342-1.454-1.98-1.209-.4.154-.564 1.965-.177 1.965.136 0-.12.375-.567.833-.843.862-1.595 2.319-1.378 2.67.165.266-.214.25-.654-.029-.548-.348-.12-1.933.784-2.9.6-.641.745-.989.604-1.437-.226-.715-1.183-1.772-1.61-1.778-.17-.003-.366-.154-.435-.336-.068-.182-.12.039-.115.49s-.177 1.195-.406 1.654c-.29.582-.322.838-.105.85.17.009.057.119-.254.244-.31.126-.726.594-.924 1.042-.198.447-.45.814-.56.814s-.2.143-.2.318-.367.696-.814 1.158l-.814.84.822.286c.452.157 1.009.474 1.238.703.232.231.63.35.896.265.264-.084.557-.026.652.127.095.154.29.207.434.118.51-.314 1.554.148 1.554.688 0 .638.481.692.716.08m-3.89-3.277c0-.154.118-.207.264-.117.145.09.265.216.265.28s-.12.117-.265.117-.265-.126-.265-.28m.915-.267c-.096-.155-.118-.339-.049-.408.07-.07.197.058.283.282.179.466.026.548-.234.126m3.847.034c0-.137.119-.323.264-.413s.265.022.265.25c0 .226-.119.412-.265.412a.26.26 0 0 1-.264-.25m.794-2.133c0-.145.126-.264.28-.264s.206.119.116.264-.216.265-.28.265-.116-.12-.116-.265m-21.696 5.557a.265.265 0 0 0-.265-.265.265.265 0 0 0-.264.265.265.265 0 0 0 .529 0m-6.01-.86c-.462-.328-.964-.864-1.114-1.191s-.395-.595-.543-.595c-.15 0-.27-.189-.27-.42s-.15-.37-.331-.31c-.412.136-.605 1.259-.217 1.259.155 0 .283.152.283.338s.185.603.412.926c.313.448.674.588 1.517.588h1.106zm-1.928-.72c0-.14.179-.187.397-.104.218.084.397.2.397.257s-.179.104-.397.104-.397-.116-.397-.257m55.166.586c.29-.086.963-.127 1.494-.092s1.021-.034 1.09-.153c.182-.32-.82-5.93-1.126-6.299-.145-.174-.184-.395-.088-.49.096-.097.038-.443-.13-.77a14 14 0 0 1-.57-1.33c-.146-.403-.475-.803-.732-.888a19 19 0 0 1-1.312-.527c-1.047-.463-2.928-.267-3.52.368a18 18 0 0 1-1.207 1.123c-.882.753-2.233 2.327-2.233 2.602 0 .1.284.36.632.575.786.488 2.483 2.698 2.975 3.876.203.485.48.882.614.882.136 0 .46.36.72.8.444.753.545.792 1.668.64.658-.089 1.434-.232 1.725-.317m-39.754-.807c.255-.22.463-.306.463-.192s.179.057.397-.124.397-.449.397-.594c0-.149-.172-.122-.393.062-.217.18-.591.25-.833.158-.485-.186-1.42.517-1.42 1.068 0 .407.696.217 1.39-.378m33.17-.78c-.21-.4-.748-1.076-1.198-1.504s-.817-.925-.817-1.105-.298-.562-.662-.849c-.363-.286-.661-.573-.661-.639 0-.065-.863-1.014-1.918-2.11-2.41-2.502-3.008-2.666-6.038-1.657-1.246.415-2.098.844-2.098 1.057 0 .197.208.343.463.324s1.14.286 1.968.678 1.617.713 1.753.713c.137 0 .397.178.577.395s.82.542 1.422.72c.601.178 1.324.535 1.606.795.282.259.706.47.942.47s.662.21.946.464c1.336 1.2 3.638 2.976 3.854 2.976.132 0 .07-.327-.14-.727m-38.138-.112c.917-.075 1.109-.214 1.584-1.144.297-.582.691-1.155.876-1.273s.27-.324.187-.457c-.082-.133.148-.776.512-1.428.558-.999.66-1.526.657-3.361-.004-1.755-.109-2.322-.54-2.928-.674-.947-2.335-1.704-2.65-1.208-.118.185-.216.217-.22.072-.025-1.089-3.7-.937-4.955.204-.323.294-.514.651-.426.795.089.143-.004.205-.204.138-.352-.117-.84.474-1.19 1.442-.092.255-.259.463-.37.463-.112 0-.286.77-.387 1.711-.178 1.662-.155 1.753.79 3.176 1.268 1.91 1.575 2.09 1.33.774-.107-.567-.307-1.168-.446-1.336-.424-.514.032-1.668.73-1.843.624-.157 1.422.257 1.422.737 0 .134.234.494.52.801s.457.66.38.785c-.077.124.046.298.274.385.227.087.414.328.414.536 0 .207.208.451.463.543.254.091.675.385.935.652.372.382.412.6.19 1.016-.341.637-.58.655-1.61.122-1.13-.584-1.574-.183-.63.57.466.371.869.516 1.04.374.154-.127.75-.27 1.324-.318m.823-3.298c-.092-.24-.104-.498-.028-.574s.138 0 .138.17.246.31.545.31.471.118.381.264c-.253.41-.85.312-1.036-.17m-.665-2.145c.017-.645.045-.668.246-.199.31.723.31.926 0 .926-.145 0-.256-.327-.246-.727m1.331-1.84c.193-.321.407-.527.477-.457s-.088.332-.35.583c-.456.436-.462.43-.127-.126m-2.54-4.577c.09-.145.216-.264.28-.264s.117.119.117.264-.126.265-.28.265-.207-.119-.117-.265m11.911 11.996c.275-.274.398-.72.33-1.19-.061-.413-.012-.751.108-.751s.219.141.219.315c0 .462.775-.64.785-1.116.005-.223.366-.795.802-1.273.57-.624.794-1.135.794-1.807 0-.718-.092-.903-.39-.789-.214.082-.482.006-.595-.17-.249-.387-1.273-.981-1.692-.981-.197 0-.251.316-.156.905.105.643.038.947-.23 1.05-.207.08-.377.38-.377.667s-.119.595-.264.685-.265.367-.265.616c0 .248-.297.89-.661 1.425l-.661.973.727.352c.525.254.704.516.645.94-.098.698.27.76.881.15m39.356-.774c.233-.393 2.491-1.961 2.825-1.961.123 0 .292-.179.376-.397.083-.218.312-.397.508-.397.343 0 1.777-1.323 1.777-1.639 0-.085-.387-.215-.86-.288s-1.515-.333-2.315-.577-1.814-.535-2.253-.647c-.439-.113-1.25-.419-1.801-.68-1.458-.693-1.656-.328-1.021 1.88.288 1 .595 2.586.684 3.524.088.938.302 1.792.476 1.9.356.22 1.299-.201 1.604-.718m-57.22.434c0-.138-.3-.575-.668-.972-.367-.396-.735-1.027-.817-1.402l-.2-.906c-.028-.122-.22.093-.426.478-.341.637-.317.808.267 1.877.468.857.805 1.176 1.243 1.176.33 0 .6-.113.6-.251m11.213-1.451c.381-.5.693-1.036.693-1.191s.185-.282.41-.282c.97 0 2-4.476 1.233-5.358-.912-1.05-1.512-.213-1.403 1.957.033.677-.066 1.309-.222 1.405-.155.096-.285.436-.287.755-.003.318-.36 1.223-.794 2.01-.877 1.592-.884 1.612-.556 1.612.128 0 .545-.409.926-.908m2.81.56c0-.193.399-.798.886-1.346.56-.63.895-1.287.909-1.786.012-.435.133-.93.268-1.102s.242-.494.238-.714c-.004-.221.07-.714.166-1.095.191-.763-.406-1.57-.75-1.013-.1.163-.123.355-.05.428.267.267-.387 1.968-1.018 2.649-.357.385-.65.824-.65.975s-.224.52-.498.821c-.55.602-.99 1.773-.646 1.713.577-.1.85.06.711.421-.084.218-.02.397.14.397.162 0 .294-.157.294-.349m63.5-.71c0-.291-.12-.53-.265-.53s-.264.239-.264.53c0 .29.119.529.264.529s.265-.238.265-.53m3.137-.947c.46-.23.783-.506.716-.614s.228-.144.656-.082c.952.14 1.32-.527.682-1.232-.236-.261-.429-.785-.429-1.165s-.12-.766-.269-.858c-.148-.091-.2-.278-.115-.414.084-.137-.025-.317-.244-.4-.218-.084-.342-.296-.275-.471.068-.175-.119-.577-.413-.893-.295-.316-.536-.646-.536-.733 0-.216-1.658-1.716-1.895-1.716-.105 0-.254.103-.332.23-.078.126-.614.305-1.191.397s-1.11.266-1.184.386c-.224.363.143 1.368.5 1.368.184 0 .488.372.677.828.188.455.612 1.098.942 1.427.33.33.538.66.463.735-.074.075.076.534.335 1.02.26.487.448.97.42 1.074-.061.224.414 1.53.557 1.53.054 0 .474-.187.935-.417m-4.707-1.262c-.135-.364-.064-.877.196-1.422.374-.785.367-.925-.088-1.77-.57-1.061-1.018-1.218-3.369-1.183-.944.014-1.976-.056-2.292-.157-.317-.1-.719-.064-.894.08-.213.177-.664.14-1.376-.113-.582-.207-1.366-.348-1.743-.314-.376.034-1.004-.149-1.396-.405-.392-.257-.828-.395-.969-.308s-.521-.027-.845-.254-.843-.412-1.154-.412-1.015-.305-1.563-.677-1.15-.618-1.338-.546c-.187.072-.406-.04-.487-.249s-.276-.38-.436-.38-.67-.29-1.135-.644-1.14-.805-1.503-1.002c-1.49-.808-3.657-2.373-5.026-3.627-.8-.734-1.663-1.336-1.918-1.338a.46.46 0 0 1-.463-.467c0-.26-.52-.79-1.184-1.21-1.644-1.039-2.63-2.242-2.231-2.722.168-.202.227-.367.13-.367-.095 0-.031-.265.142-.59.363-.677.763-2.097.914-3.247.156-1.186.285-1.807.467-2.249.09-.218.216-1.11.28-1.984s.294-3.135.512-5.027.405-3.618.416-3.837c.118-2.36 1.083-4.01 1.083-1.852 0 1.277.49 1.342.868.116.132-.427.594-1.737 1.026-2.91s.758-2.245.726-2.382c-.033-.136.079-.583.248-.992.503-1.22.398-1.506-.553-1.492-.473.007-1.838 0-3.034-.014l-2.174-.026-1.024-1.198c-.86-1.006-1.203-1.215-2.145-1.306-1.094-.105-1.178-.054-3.31 2.014-1.204 1.166-2.354 2.445-2.555 2.84-.202.396-.746 1.315-1.209 2.043-1.109 1.744-3.195 8.008-3.392 10.187-.085.945-.21 3.125-.278 4.843-.11 2.795-.19 3.212-.766 3.969-.353.464-.73 1.202-.838 1.639-.107.436-.427 1.241-.71 1.788-.555 1.073-.48 1.99.222 2.691.414.414 1.313.594 1.08.217-.068-.11.134-.217.447-.239.8-.057 2.555-.71 2.555-.95 0-.11.153-.2.34-.2s.72-.328 1.183-.728l.842-.727.128-3.572c.07-1.965.246-4.634.393-5.931.146-1.298.218-2.436.16-2.53s.021-.669.176-1.279c.222-.872.204-1.204-.081-1.556-.2-.246-.228-.366-.062-.267.327.196.766-1.488.5-1.917-.081-.133-.027-.317.12-.408.152-.094.27-1.258.27-2.664 0-1.374.09-2.498.2-2.498s.343.327.519.727c.34.776.34 4.74 0 5.274-.11.172-.09.38.042.461.138.086.15.573.026 1.143-.61 2.824-.938 17.836-.414 18.985.132.291.267.853.299 1.25.095 1.173.301 1.466 1.362 1.932 1.042.457 1.768.823 5.715 2.882 1.28.667 2.5 1.212 2.712 1.212s.386.105.386.232.387.307.86.4c.473.092 1.336.393 1.918.668 2.019.954 3.064 1.346 3.585 1.346.288 0 .73.114.983.252 1.098.602 2.4 1.038 3.568 1.197.692.094 1.257.27 1.257.39s.785.366 1.744.547c1.505.284 1.894.484 2.844 1.464 1.333 1.375 2.48 1.726 5.667 1.734 1.272.004 2.73.096 3.239.205 1.358.292 1.862.107 1.605-.59m-35.311-14.35c-.23-.596-.192-1.238.097-1.695.344-.545.782-.066 1.058 1.156.2.885.17.958-.39.958-.332 0-.677-.188-.765-.418m-.586-23.547c.088-.23.164-.618.169-.86.007-.39.04-.385.286.037.316.543.138 1.241-.314 1.241-.166 0-.23-.188-.141-.418m64.719 36.258c0-.079-.238-.399-.53-.711-.29-.313-.528-.724-.528-.915s-.12-.347-.265-.347-.265-.179-.265-.397-.119-.397-.264-.397-.265-.165-.265-.366c0-.503-.99-1.104-2.183-1.326-.545-.101-.992-.298-.992-.437a.26.26 0 0 0-.264-.252c-.56 0-.169.452 1.719 1.984 1.075.873 2.108 1.912 2.296 2.308.3.633.607.855 1.342.969.11.017.199-.034.199-.113m2.117-.915a.265.265 0 0 0-.265-.264.265.265 0 0 0-.265.264.265.265 0 0 0 .53 0m5.306-1.124c.273-.328.5-.698.506-.822.01-.266 1.632-2.379 1.925-2.508.11-.048.2-.238.2-.422 0-.183.238-.549.53-.812.29-.264.528-.64.528-.835 0-.196.12-.356.265-.356s.265-.238.265-.53.176-.528.396-.528c.219 0 .397-.132.397-.293 0-.342 1.55-2.388 2.044-2.697.185-.116.338-.372.338-.567 0-.196.178-.424.396-.508s.397-.325.397-.535.148-.433.329-.493c.608-.202-.198-3.082-1.132-4.046-.446-.46-.79-.943-.766-1.074.146-.78-.212-1.343-1.91-3.002-1.042-1.016-1.98-1.794-2.087-1.728s-.325-.038-.485-.23c-.16-.193-.758-.369-1.329-.391-.57-.023-1.316-.147-1.657-.276-1.623-.614-3.747.114-4.506 1.544-.431.812-1.187 1.596-1.538 1.596-.333 0-.338.565-.013 1.42.35.92-.058 2.15-1.05 3.162-.635.649-.73.861-.41.927.228.047.415.203.415.346 0 .144-.109.194-.241.113-.132-.082-.776.08-1.43.361-.656.28-1.232.477-1.282.436s-.47-.147-.936-.236l-.847-.16.156 1.313c.106.897.06 1.313-.146 1.313-.166 0-.301.152-.301.337s-.953 1.261-2.117 2.393c-1.164 1.13-2.117 2.117-2.117 2.19 0 .074.715.086 1.588.028s1.587-.005 1.587.12c0 .123.304.224.675.224.37 0 1.038.188 1.483.418.444.23 1.447.433 2.228.451.892.021 1.469.16 1.552.376.072.188.409.343.748.343.34 0 .73.107.868.24.526.5 2.236 1.327 2.236 1.08 0-.143.583.306 1.296.996 1.13 1.094 2.07 1.85 2.366 1.901.049.009.313-.252.586-.58m-4.352-3.984c-.566-.174-1.162-.544-1.323-.822a6.6 6.6 0 0 0-.776-1.012c-.266-.28-.42-.673-.343-.875.078-.202.031-.436-.103-.519-.3-.186-.079-1.552.44-2.713.211-.475.317-.973.234-1.106-.188-.304.836-1.831 2.274-3.39l1.094-1.188 1.483.174c.815.096 1.597.289 1.737.43.379.378.625.31.76-.209.087-.33.13-.281.152.167.035.716 1.005 2.413 1.38 2.413.34 0 .14 3.171-.244 3.885-.171.318-.311.743-.311.945s-.49.775-1.088 1.274l-2.59 2.158c-.768.641-1.58.755-2.776.388m4.13-3.84c1-.62 1.536-1.44 1.589-2.434.019-.36.14-.797.27-.97.25-.331-.463-1.67-.888-1.67-.13 0-.235-.177-.235-.393 0-.424-1.124-.82-1.561-.55-.148.092-.491.028-.763-.142-.39-.243-.692-.213-1.445.144-1.146.544-1.75 1.839-1.721 3.694.018 1.197.09 1.323 1.233 2.155 1.374 1 2.114 1.034 3.52.165m-1.076-.51c-.022-.183-.27-.331-.553-.331-.753 0-.89-.424-.388-1.192.44-.671.446-.672.822-.136.208.297.329.866.268 1.265-.06.398-.127.575-.15.393m.58-1.602c-.074-.284-.393-.654-.708-.823-.618-.332-1.307-1.545-1.083-1.907.166-.268 1.121.238 1.766.934.257.279.734.64 1.06.802.874.435.779 1.317-.153 1.424-.56.064-.781-.043-.882-.43m-3.467-1.418c-.233-.233-.207-.477.11-1.014.511-.865 1.325-1.419 1.55-1.055.088.143-.026.26-.252.26-.305 0-.413.276-.413 1.058 0 1.084-.377 1.369-.995.751m-7.736 4.011c0-.145.126-.264.28-.264s.207.119.117.264-.216.265-.28.265-.117-.119-.117-.265m3.175-1.956c0-.057.179-.172.397-.256s.397-.037.397.104-.179.256-.397.256-.397-.046-.397-.104m-3.307-.69c.09-.145.216-.264.28-.264s.117.12.117.265-.127.264-.28.264c-.155 0-.207-.119-.117-.264m6.217-5.042c0-.154.12-.207.265-.117s.265.216.265.28-.12.117-.265.117-.265-.126-.265-.28m10.584-.926c0-.227.119-.339.264-.25s.265.276.265.413-.12.25-.265.25-.264-.186-.264-.413m-2.25-.646c.09-.145.217-.265.28-.265.065 0 .118.12.118.265s-.126.265-.28.265-.207-.12-.117-.265m2.914-.004c.091-.148.277-.2.412-.117.367.227.299.386-.166.386-.227 0-.338-.121-.246-.27m-9.66-1.319c0-.145.119-.265.264-.265s.265.12.265.265-.119.265-.265.265a.265.265 0 0 1-.264-.265m3.969-1.323c0-.145.126-.264.28-.264s.206.119.116.264-.216.265-.28.265-.116-.12-.116-.265m1.587-1.587a.265.265 0 0 1 .53 0 .265.265 0 0 1-.53 0m-6.35 20.505c-.181-.218-.55-.397-.818-.397q-.488 0-.336.397c.084.218.452.397.818.397.562 0 .614-.062.336-.397m-80.985-1.883c.3-.381.485-.789.413-.906s.116-.633.418-1.145c.35-.593.515-1.251.453-1.807-.082-.738-.13-.792-.308-.345-.116.291-.538 1.184-.938 1.985-1.268 2.539-1.29 3.809-.038 2.218m1.008.25c.066-.197-.095-.258-.441-.168-.3.079-.544.257-.544.396 0 .351.858.153.985-.228m45.706-.364c.257.415 1.198.334 1.198-.104 0-.21-.119-.455-.264-.545s-.265-.517-.265-.95c0-.455-.167-.85-.397-.939-.218-.083-.397-.378-.397-.654s-.238-.946-.529-1.489c-.29-.543-.532-1.168-.535-1.388s-.239-.698-.523-1.062-.52-.795-.524-.957c-.003-.162-.225-.579-.494-.926-.27-.347-.563-.936-.654-1.31-.292-1.196-1.065-1.856-1.965-1.676-.76.152-1.923-.23-1.916-.63.006-.351 1.992-1.146 2.437-.975.311.12.442.027.447-.317.023-1.655.187-3.178.374-3.468.12-.185.186-.92.148-1.633-.04-.738.071-1.465.257-1.688.179-.216.258-.672.176-1.013-.082-.342.009-1.454.202-2.473.517-2.727.45-9.87-.099-10.647l-.42-.593-1.28.91c-.704.501-1.392.842-1.528.758a.317.317 0 0 0-.416.08c-.093.127-.406.363-.696.523-.518.288-.737 1.067-1.065 3.788-.077.644-.21 1.447-.295 1.786-.234.93.495.783 1.438-.29.438-.499.867-.836.953-.75.087.087.157.63.157 1.206 0 .916-.179 1.226-1.415 2.453l-1.415 1.403-.19 2.465c-.156 2.022-.264 8.814-.14 8.814.019 0 .073.525.12 1.166.115 1.598.648 3.457 1.231 4.3.268.385.486.839.486 1.007s.12.232.265.142.264.054.264.32.325.957.723 1.537.903 1.402 1.124 1.828c.592 1.141 1.582 1.748 2.984 1.83.683.039 1.322.153 1.422.252.1.1.33.058.513-.094.23-.19.384-.19.503.003m-5.416-17.45c0-.146.126-.265.28-.265s.206.12.116.265-.216.265-.28.265-.116-.12-.116-.265m-.794 16.376c0-.504-.136-.766-.397-.766-.218 0-.397-.14-.397-.31s-.17-.497-.378-.727c-.207-.23-.758-1.192-1.223-2.138s-.98-1.886-1.144-2.089c-.614-.761-1.044-3.176-1.147-6.443-.061-1.954-.215-3.374-.365-3.374-.143 0-.557.195-.92.433-.55.36-1.189.411-3.833.302l-3.172-.13-1.295 1.616c-1.963 2.449-2.476 2.994-3.126 3.32-.327.164-.595.472-.595.684 0 .425 1.993 1.977 2.538 1.977.189 0 .513.244.722.541.374.534 2.65 2.105 3.05 2.105.113 0 .548.357.966.794.418.436.917.794 1.108.794s.347.119.347.264.173.265.384.265.48.16.595.354c.211.354 2.583 1.542 4.842 2.425.655.256 1.538.617 1.961.803 1.022.447 1.479.231 1.479-.7m-38.728.17c.273-.714-.025-1.04-.508-.555-.249.248-.452.561-.452.697 0 .398.797.28.96-.143m56.19-.406c0-.146-.185-.265-.412-.265s-.339.119-.25.265c.09.145.276.264.413.264s.25-.119.25-.264m-55.033-2.329c0-.116-.12-.332-.268-.48-.181-.18-.052-.47.397-.892.743-.699.87-1.327.268-1.327-.218 0-.397.19-.397.422s-.23.482-.51.555c-.724.19-.903.867-.381 1.443.462.51.891.645.891.28m74.224-9.961c.7-.292.918-.54.918-1.043 0-.895-.476-1.127-.77-.376-.13.337-.492.88-.803 1.207-.662.698-.576.726.655.212m-47.081-6.297a37 37 0 0 0 1.304-1.654c.434-.582.998-1.289 1.252-1.571.255-.282.464-.66.464-.838 0-.179.089-.365.198-.413.624-.277 1.856-3.519 1.873-4.926a7 7 0 0 1 .286-1.72c.151-.468.27-1.089.262-1.38-.007-.291.107-.999.255-1.573.307-1.194.172-1.586-.454-1.32-.625.266-1.922.165-2.636-.205-.477-.247-.711-.246-1.058.003-.246.176-.592.39-.77.477-.467.225-2.164-.899-2.708-1.793-.663-1.09-.997-.533-1.222 2.038-.222 2.542-.224 2.771-.039 4.622l.34 3.382c.107 1.06.282 1.981.39 2.048.233.144 1.05-1.487 1.05-2.096 0-.233.118-.423.264-.423.145 0 .264-.197.264-.438 0-.392.056-.387.536.046.294.267.42.556.281.642-.14.086-.493.714-.785 1.395-.409.954-.529 1.814-.525 3.765.006 2.716.21 3.05 1.178 1.932m1.557-12.646c-.21-.34.55-1.547 1.108-1.76.784-.302.87.512.135 1.29-.766.81-.982.893-1.243.47m2.785 12.083c0-.657.584-1.346.885-1.045.095.096.174-.074.174-.377s-.15-.606-.331-.672c-.265-.097-.265-.192 0-.472.46-.488.413-1.039-.09-1.039-.23 0-.554.358-.719.794s-.43.794-.589.794c-.16 0-.544.476-.855 1.058s-.451 1.059-.313 1.059.251-.12.251-.265.119-.265.265-.265c.145 0 .264.239.264.53q0 .528.53.529c.38 0 .528-.177.528-.63m1.059-.033c0-.218-.12-.397-.265-.397s-.264.179-.264.397.119.397.264.397.265-.178.265-.397m-9.525-1.767c0-1.407-.523-2.702-1.194-2.96-.322-.124-.379-.375-.245-1.09.11-.581.071-.93-.102-.93-.152 0-.314.319-.36.708-.109.918-.68 1.096-.983.307-.178-.461-.273-.517-.375-.22-.262.759-.45 3.458-.288 4.108.22.875.636.833.636-.065 0-.692.017-.7.463-.232.34.355.375.518.133.608-.182.067-.331.348-.331.625 0 .43.19.498 1.323.472l1.323-.03zm-2.91-2.07c0-.605.099-.635.818-.25.609.325.431.78-.305.78-.337 0-.514-.182-.514-.53m11.515-13.111c-.367-.482-.668-1.003-.668-1.158 0-.357.708-.37.926-.018.09.146.335.265.545.265s.381-.12.381-.265-.22-.264-.488-.264-.707-.242-.974-.538c-.436-.482-.445-.579-.083-.941.363-.363.511-.342 1.438.195.568.33 1.116.72 1.217.867.102.148.272.181.38.074.107-.108.054-.336-.118-.508-.406-.406-.405-1.708.002-1.959.173-.107.362-.054.419.117s.285.311.507.311c.24 0 .344.153.258.378-.186.484.488 1.051 1.01.85.221-.084.403-.365.405-.624.006-.733.785-2.801 1.248-3.316.23-.254.682-.463 1.006-.463s.736-.178.917-.397c.181-.218.479-.396.662-.396.51 0 .954-.676.767-1.165-.192-.5-1-.356-1.76.312-.28.245-.938.4-1.654.39-1.086-.017-1.19.037-1.19.619 0 .461-.146.637-.53.637-.29 0-.528.12-.528.265 0 .413-1.536.31-2.237-.149-.347-.227-.79-.377-.984-.332s-.728-.186-1.187-.513c-.63-.449-.798-.734-.685-1.164.242-.925-.35-.356-1.217 1.171-.832 1.464-1.5 4.625-1.073 5.075.132.138.239.477.239.753 0 1.203 2.171 3.171 3.202 2.901.492-.128.485-.174-.153-1.01m6.413.96c.253-.135.668-.31.923-.388.36-.112.463-.438.463-1.467 0-1.486-.198-1.528-1.745-.366-.45.338-.942.614-1.092.614-.62 0-.86.687-.448 1.275.429.612 1.142.737 1.9.332m1.152-4.583c.565-.618 1.028-1.216 1.028-1.329s-.303-.342-.673-.51c-.568-.259-.752-.227-1.18.204-.616.622-1.029 2.76-.532 2.76.181 0 .792-.507 1.357-1.125m-19.08-2.183c0-.218.21-.397.466-.397.434 0 .855-.546 1.272-1.653.203-.538.666-.599 1.119-.146.247.247.388.247.635 0 .174-.175.532-.317.794-.317s.476-.183.476-.406c0-.222.178-.473.397-.557.486-.187.528-.89.053-.89-.19 0-.483.14-.653.309-.368.368-2.263.335-2.987-.052-.283-.151-.514-.442-.514-.645s-.24-.446-.533-.539-.456-.294-.362-.446c.107-.173 1.004-.233 2.385-.16 2.204.115 2.214.113 2.214-.531 0-.6-.063-.631-.86-.422-.473.124-1.954.231-3.292.238s-2.502.083-2.588.169c-.086.085.146.353.514.595 1 .655.85 1.046-.323.84-.55-.096-1.251-.463-1.574-.823-.464-.516-.84-.65-1.84-.65-1.055 0-1.397.136-2.13.846-.48.466-.872.987-.872 1.159s-.165.45-.367.617c-.725.602-.63 2.67.122 2.67.166 0 .233-.178.15-.396s-.037-.397.104-.397.256.182.256.405c0 .553.792.817 1.08.36.177-.277.236-.22.239.227.002.357.166.595.41.595.261 0 .39-.214.356-.595-.028-.327-.032-1.158-.01-1.846.034-1.029.163-1.33.726-1.699.558-.366.724-.383.902-.094.12.194.11.64-.022.988-.63 1.656.107 3.216 1.529 3.237.711.011.895-.253.7-1.003-.182-.693-.534-.75-.7-.112-.09.339-.13.298-.152-.15-.044-.865.43-1.636 1.006-1.636.712 0 1.294 1.04 1.146 2.049-.069.47-.056 1.035.028 1.255.198.517.7.519.7.003m6.567-2.072c.05-.261-.084-.441-.33-.441s-.417.226-.417.55c0 .646.618.554.747-.11m8.453-.127c.063-.189-.169-.314-.579-.314-.71 0-.93.386-.353.617.458.183.808.069.932-.303m8.89-1.505c.157-.291.556-.952.887-1.47.965-1.507 1.022-1.462-2.44-1.902-.291-.037-.708-.263-.926-.502-.219-.238-1.267-.757-2.33-1.152-1.839-.685-1.956-.698-2.437-.262-.482.436-.567.428-1.76-.17-1.277-.639-1.797-1.289-1.032-1.289.232 0 .653.144.936.32.625.391 1.006.105.503-.377-.714-.683-1.838-1.285-2.098-1.124-.146.09-.51.72-.808 1.4s-.652 1.443-.786 1.696c-.532 1.007-.265 1.677 1.116 2.8.747.609 1.502 1.106 1.678 1.106s.53-.387.786-.86c.517-.952 2.4-2.019 2.822-1.597.45.45-.06 1.123-1.249 1.648-1.306.578-1.506 1.22-.5 1.603.902.343 2.777-.502 2.777-1.252 0-.148.478-.345 1.062-.438 1.371-.22 2.378.378 2.378 1.411 0 .396.083.803.185.905.313.312.933.064 1.235-.494m-11.626-.367c.24-.39-.618-.954-.949-.624-.155.156-.203.413-.105.571.214.347.853.379 1.054.053m4.384-5.454c0-.218-.193-.397-.43-.397-.35 0-.369.072-.1.397.182.218.375.397.43.397s.1-.179.1-.397m-6.056-2.325c-.216-.216-.294-.186-.294.111 0 .526.356.882.487.488.056-.168-.03-.437-.193-.599m-.403-1.444c-.289-.289-.487.17-.28.649.197.453.212.453.321-.01.063-.265.045-.553-.04-.639zm12.015-1.258c0-.218-.119-.397-.264-.397s-.265.179-.265.397.12.397.265.397.264-.179.264-.397" style="fill:#000;stroke-width:.26458332" transform="translate(322.122 103.683)"/></svg>